# Exported from Wings 3D 2.1.7
mtllib XMaze_UV2.mtl
o Extrude002
#36 vertices, 68 faces
v 109.99999200 -1.00000000 -1.00000000
v 115.00003800 -1.00000000 4.00000000
v 109.99999200 -2.00000000 -1.00000000
v 115.00003800 -2.00000000 4.00000000
v 124.14209000 -1.00000000 -5.14213600
v 124.14209000 -2.00000000 -5.14213600
v 132.21321100 -1.00000000 2.92890100
v 132.21321100 -2.00000000 2.92890100
v 125.14213600 -1.00000000 10.00003300
v 125.14213600 -2.00000000 10.00003300
v 132.21321100 -1.00000000 17.07103700
v 132.21321100 -2.00000000 17.07103700
v 124.14218100 -1.00000000 25.14213600
v 124.14218100 -2.00000000 25.14213600
v 114.99996200 -1.00000000 16.00000000
v 114.99996200 -2.00000000 16.00000000
v 110.00000800 -1.00000000 21.00000000
v 110.00000800 -2.00000000 21.00000000
v 110.00000000 -1.00000000 20.00000000
v 110.00000000 -2.00000000 20.00000000
v 115.00000000 -1.00000000 15.00000000
v 115.00000000 -2.00000000 15.00000000
v 124.14213600 -1.00000000 24.14213600
v 124.14213600 -2.00000000 24.14213600
v 131.21321100 -2.00000000 17.07106800
v 131.21321100 -1.00000000 17.07106800
v 124.14213600 -1.00000000 10.00000000
v 124.14213600 -2.00000000 10.00000000
v 131.21321100 -2.00000000 2.92893200
v 131.21321100 -1.00000000 2.92893200
v 124.14213600 -1.00000000 -4.14213600
v 124.14213600 -2.00000000 -4.14213600
v 115.00000000 -1.00000000 5.00000000
v 115.00000000 -2.00000000 5.00000000
v 110.00000000 -1.00000000 0.0000000e+0
v 110.00000000 -2.00000000 0.0000000e+0
vt 0.0000000e+0 0.12409440
vt 0.0000000e+0 0.22600366
vt 0.0000000e+0 0.25044003
vt 0.0000000e+0 0.35173940
vt 0.0000000e+0 0.47162915
vt 0.0000000e+0 0.49252634
vt 0.0000000e+0 0.80895508
vt 0.0000000e+0 0.80895508
vt 9.4037341e-7 0.82985226
vt 9.6127060e-7 0.78805789
vt 7.1970648e-5 0.20633817
vt 2.1566161e-4 0.22661280
vt 4.6406446e-3 0.14446980
vt 2.0898148e-2 0.49252634
vt 0.14776654 0.64029246
vt 0.16841285 0.45194622
vt 0.16866372 0.61790946
vt 0.16866372 0.64029311
vt 0.16866372 0.70446845
vt 0.16866372 0.72536564
vt 0.16866389 0.59701227
vt 0.17075403 0.47118046
vt 0.19104666 1.00000000
vt 0.19104666 1.00000000
vt 0.23832085 0.22812817
vt 0.23845545 0.24894231
vt 0.25426741 0.20573522
vt 0.25431646 0.22661280
vt 0.26343215 6.4095823e-2
vt 0.26807279 8.4471221e-2
vt 0.27017708 0.47162915
vt 0.27017708 0.49252634
vt 0.27314983 0.49252634
vt 0.27315062 0.51342353
vt 0.31642915 0.70446845
vt 0.31642915 0.72536564
vt 0.31642915 0.74626283
vt 0.34149746 0.25044003
vt 0.34268012 0.27184172
vt 0.38209238 0.82985226
vt 0.38209332 0.80895508
vt 0.38209332 0.80895508
vt 0.41794319 0.47162915
vt 0.41794319 0.47162915
vt 0.41794319 0.49252634
vt 0.41794319 0.49252634
vt 0.46102498 0.36245049
vt 0.46163610 0.38598284
vt 0.46419379 0.70446845
vt 0.46419390 0.72536564
vt 0.46419390 0.74626283
vt 0.46419457 0.70446845
vt 0.46419457 0.72536564
vt 0.46419475 0.57908533
vt 0.46419475 0.68357126
vt 0.46419475 0.70446845
vt 0.46419475 0.72536564
vt 0.46419475 0.72536564
vt 0.46419475 0.74626283
vt 0.46419475 0.76716001
vt 0.46419475 0.78805720
vt 0.46419475 0.78805720
vt 0.46419475 0.80895439
vt 0.46419492 0.55818814
vt 0.46718623 1.7689353e-2
vt 0.47182688 3.8064751e-2
vt 0.47712966 0.22661280
vt 0.47747774 0.24509005
vt 0.47747774 0.24750998
vt 0.47747774 0.22661280
vt 0.47831184 0.0000000e+0
vt 0.49837492 0.24750998
vt 0.49837492 0.22661280
vt 0.50815037 0.20375484
vt 0.50835191 0.22600366
vt 0.52471924 0.20375484
vt 0.52471924 0.31594743
vt 0.54215286 0.0000000e+0
vt 0.54558473 0.31709801
vt 0.55952468 0.33266625
vt 0.56867989 0.66267408
vt 0.56868068 0.68357126
vt 0.57313824 1.00000000
vt 0.57313904 0.97761769
vt 0.57313904 0.97910281
vt 0.61196018 0.76716001
vt 0.61196018 0.78805720
vt 0.61196018 0.78805720
vt 0.63285736 0.78805720
vt 0.63285736 0.76716001
vt 0.65646847 0.47162915
vt 0.65646847 0.49252634
vt 0.65646847 0.47162915
vt 0.66411970 0.47162915
vt 0.67316673 0.70446845
vt 0.67316673 0.72536564
vt 0.67316673 0.72536564
vt 0.67316673 0.74626283
vt 0.67316673 0.76716001
vt 0.68040111 0.17654712
vt 0.70126652 0.17769904
vt 0.70126652 0.18842512
vt 0.70272003 0.68357126
vt 0.70272003 0.70446845
vt 0.71563019 0.17324693
vt 0.72090367 0.80895508
vt 0.72090461 0.82985226
vt 0.72090461 0.82985226
vt 0.72090555 0.80895508
vt 0.73651942 0.17267043
vt 0.74466319 0.46808906
vt 0.75972561 0.49252634
vt 0.75972561 0.59701227
vt 0.75972561 0.70149821
vt 0.75972640 0.57611509
vt 0.86421058 0.59701227
vt 0.86421075 0.61790946
vt 0.86421154 0.49252634
vt 0.86544140 0.47162915
vt 0.86544140 0.49252634
vt 0.86741150 0.31688302
vt 0.86867019 0.97761769
vt 0.87958021 0.0000000e+0
vt 0.88830077 0.31630786
vn -0.23259076 0.79410569 -0.56151375
vn -2.6541116e-6 0.81649658 -0.57735027
vn -0.32038172 -0.54691973 -0.77345611
vn -1.5323521e-6 -0.94280904 -0.33333333
vn -2.8284103e-6 0.81649650 -0.57735039
vn -3.9999758e-6 -0.57735015 -0.81649666
vn 0.56694560 0.80178386 -0.18898500
vn 0.56694734 -0.80178386 0.18897976
vn 0.46291056 0.87287164 0.15430135
vn 0.46290917 -0.87287164 -0.15430554
vn 0.70710554 0.66666678 -0.23570567
vn 0.70710773 -0.66666678 0.23569910
vn 0.18898470 0.80178370 0.56694593
vn -0.18897971 -0.80178370 0.56694760
vn -0.15430124 0.87287157 0.46291074
vn 0.15430547 -0.87287157 0.46290933
vn 0.23259112 0.56151582 0.79410412
vn -0.72597817 -0.56151582 0.39705880
vn -0.78712246 0.58152302 -0.20559478
vn -0.70196038 -0.58152302 -0.41119655
vn -0.23570226 0.66666667 -0.70710678
vn 0.23570226 -0.66666667 -0.70710678
vn 1.6977487e-7 0.72760679 -0.68599443
vn 1.0552894e-7 -0.90453399 -0.42640152
vn -0.57735008 -0.81649672 4.5324673e-17
vn -0.33333319 0.94280909 7.8504627e-17
vn -0.81649645 0.57735046 0.0000000e+0
vn -0.57735008 -0.81649672 0.0000000e+0
vn -0.68599416 -0.72760704 0.0000000e+0
vn -0.42640126 0.90453412 0.0000000e+0
vn -0.15430319 0.87287152 0.46291018
vn 0.15430342 -0.87287152 0.46291010
vn 0.23570226 0.66666667 0.70710678
vn -0.23570226 -0.66666667 0.70710678
vn -0.81251888 0.47596254 0.33656015
vn -0.62694264 -0.73450899 0.25969108
g Extrude002_Extrude002_auv
usemtl Extrude002_auv
s 1
f 1/17/1 35/21/35 2/34/2
f 2/32/2 3/43/3 1/46/1
f 2/32/2 4/31/4 3/43/3
f 2/32/2 6/5/6 4/31/4
f 2/34/2 31/55/31 5/49/5
f 2/34/2 33/33/33 31/55/31
f 2/34/2 35/21/35 33/33/33
f 3/70/3 35/72/35 1/69/1
f 3/70/3 36/73/36 35/72/35
f 4/39/4 36/47/36 3/48/3
f 5/6/5 6/5/6 2/32/2
f 5/104/5 7/56/7 6/103/6
f 5/8/5 31/10/31 7/18/7
f 6/22/6 32/16/32 4/39/4
f 7/45/7 8/44/8 6/93/6
f 7/120/7 9/92/9 8/119/8
f 7/18/7 30/15/30 9/14/9
f 7/18/7 31/10/31 30/15/30
f 8/4/8 32/16/32 6/22/6
f 9/92/9 10/91/10 8/119/8
f 9/79/9 11/101/11 10/80/10
f 9/79/9 26/100/26 11/101/11
f 9/79/9 27/77/27 26/100/26
f 9/79/9 30/94/30 27/77/27
f 10/76/10 29/65/29 8/71/8
f 11/102/11 12/105/12 10/121/10
f 11/75/11 13/28/13 12/74/12
f 11/101/11 26/100/26 13/78/13
f 12/105/12 25/110/25 10/121/10
f 13/28/13 14/27/14 12/74/12
f 13/28/13 15/2/15 14/27/14
f 13/41/13 23/40/23 15/23/15
f 13/109/13 26/122/26 23/107/23
f 14/123/14 25/110/25 12/105/12
f 15/2/15 16/11/16 14/27/14
f 15/51/15 17/37/17 16/50/16
f 15/81/15 19/54/19 17/64/17
f 15/81/15 21/82/21 19/54/19
f 15/81/15 23/112/23 21/82/21
f 16/24/16 24/9/24 14/7/14
f 17/37/17 18/36/18 16/50/16
f 17/89/17 19/87/19 18/90/18
f 18/116/18 20/117/20 16/114/16
f 19/87/19 20/86/20 18/90/18
f 19/87/19 21/61/21 20/86/20
f 20/118/20 22/113/22 16/115/16
f 21/20/21 22/19/22 20/35/20
f 21/68/21 23/26/23 22/67/22
f 22/83/22 24/42/24 16/85/16
f 23/26/23 24/25/24 22/67/22
f 23/26/23 25/12/25 24/25/24
f 23/26/23 26/3/26 25/12/25
f 24/108/24 25/84/25 14/106/14
f 25/110/25 28/124/28 10/121/10
f 26/99/26 27/60/27 25/98/25
f 27/59/27 28/57/28 25/97/25
f 27/96/27 29/56/29 28/95/28
f 27/96/27 30/58/30 29/56/29
f 28/124/28 29/111/29 10/121/10
f 29/65/29 32/29/32 8/71/8
f 30/66/30 31/30/31 29/65/29
f 31/30/31 32/29/32 29/65/29
f 31/30/31 33/13/33 32/29/32
f 32/16/32 34/38/34 4/39/4
f 33/13/33 34/1/34 32/29/32
f 33/53/33 35/36/35 34/52/34
f 34/38/34 36/47/36 4/39/4
f 35/63/35 36/62/36 34/88/34
o Extrude001
#36 vertices, 68 faces
v 0.0000000e+0 -1.00000000 21.00000000
v -4.99995500 -1.00000000 16.00000000
v 0.0000000e+0 -2.00000000 21.00000000
v -4.99995500 -2.00000000 16.00000000
v -14.14217300 -1.00000000 25.14213600
v -14.14217300 -2.00000000 25.14213600
v -22.21320300 -1.00000000 17.07103200
v -22.21320300 -2.00000000 17.07103200
v -15.14213600 -1.00000000 10.00002900
v -15.14213600 -2.00000000 10.00002900
v -22.21320300 -1.00000000 2.92889600
v -22.21320300 -2.00000000 2.92889600
v -14.14209800 -1.00000000 -5.14213600
v -14.14209800 -2.00000000 -5.14213600
v -5.00004500 -1.00000000 4.00000000
v -5.00004500 -2.00000000 4.00000000
v 0.0000000e+0 -1.00000000 -1.00000000
v 0.0000000e+0 -2.00000000 -1.00000000
v 0.0000000e+0 -1.00000000 0.0000000e+0
v 0.0000000e+0 -2.00000000 0.0000000e+0
v -5.00000000 -1.00000000 5.00000000
v -5.00000000 -2.00000000 5.00000000
v -14.14213600 -1.00000000 -4.14213600
v -14.14213600 -2.00000000 -4.14213600
v -21.21320300 -1.00000000 2.92893200
v -21.21320300 -2.00000000 2.92893200
v -14.14213600 -1.00000000 10.00000000
v -14.14213600 -2.00000000 10.00000000
v -21.21320300 -1.00000000 17.07106800
v -21.21320300 -2.00000000 17.07106800
v -14.14213600 -1.00000000 24.14213600
v -14.14213600 -2.00000000 24.14213600
v -5.00000000 -1.00000000 15.00000000
v -5.00000000 -2.00000000 15.00000000
v 0.0000000e+0 -1.00000000 20.00000000
v 0.0000000e+0 -2.00000000 20.00000000
vt 0.0000000e+0 0.0000000e+0
vt 0.0000000e+0 0.60261970
vt 4.1633363e-17 0.45613933
vt 2.6617597e-14 0.22806966
vt 1.6002301e-2 0.44932776
vt 2.2806967e-2 0.22806966
vt 3.2170457e-2 0.44055575
vt 3.9603285e-2 0.21151819
vt 0.14752064 0.54625103
vt 0.16418787 0.10216002
vt 0.16418787 0.22209778
vt 0.16418787 0.44128648
vt 0.16418787 0.46164411
vt 0.16418787 0.48200174
vt 0.16418787 0.50235937
vt 0.16418787 0.54307463
vt 0.16418787 0.42092886
vt 0.16418787 0.44128648
vt 0.16418787 0.52271700
vt 0.16418787 0.54424872
vt 0.16535891 7.8878403e-2
vt 0.18322470 0.74552807
vt 0.19574492 0.72947574
vt 0.21594868 0.72697752
vt 0.27592140 0.20109758
vt 0.27707630 0.22209778
vt 0.30813804 0.50235937
vt 0.30813804 0.52271700
vt 0.30813804 0.54307463
vt 0.30813804 0.50235937
vt 0.30813804 0.48200174
vt 0.32849566 0.48200174
vt 0.32849566 0.50235937
vt 0.33865328 0.54625103
vt 0.34115152 0.56645479
vt 0.34374726 0.87072962
vt 0.34999417 0.31609377
vt 0.35524924 0.27844089
vt 0.35626747 0.85467729
vt 0.35998623 0.29814534
vt 0.37647140 0.55990479
vt 0.37647140 0.85218039
vt 0.39157133 0.54625103
vt 0.39655416 0.46164411
vt 0.39655416 0.48200174
vt 0.41224150 0.83555497
vt 0.42589532 0.85065484
vt 0.42739027 0.44128648
vt 0.42739027 0.46164411
vt 0.42739145 0.42092886
vt 0.42739145 0.44128648
vt 0.43119144 3.6659663e-2
vt 0.43271919 0.0000000e+0
vt 0.43773995 1.8591312e-2
vt 0.44622725 0.85167744
vt 0.51901419 0.73900741
vt 0.52239873 0.42092886
vt 0.53266802 0.75410728
vt 0.53288351 0.40369227
vt 0.55253242 0.22209778
vt 0.55253242 0.24245541
vt 0.55253242 0.39897688
vt 0.55299990 0.75513080
vt 0.56809983 0.74147704
vt 0.57289005 0.22209778
vt 0.57289005 0.24245541
vt 0.61776459 8.4123735e-2
vt 0.63512014 7.6024365e-2
vt 0.63512014 0.33381763
vt 0.63512014 0.42727643
vt 0.63512014 0.74516756
vt 0.63512014 3.5530525e-2
vt 0.63512014 0.70681314
vt 0.63577060 0.31347040
vt 0.63625213 0.40695030
vt 0.64080959 0.72635957
vt 0.64291067 0.72635957
vt 0.64291126 0.76397530
vt 0.64954149 2.1161890e-2
vt 0.66989909 2.1198524e-2
vt 0.72683135 0.20013892
vt 0.74010953 0.23533379
vt 0.74075907 0.21498653
vt 0.79815016 0.58795635
vt 0.79912683 0.20013892
vt 0.81058831 0.62345601
vt 0.81172197 0.60312998
vt 0.81354818 0.18577028
vt 0.81358477 0.16541268
vt 0.82320109 0.82307303
vt 0.83099103 0.84188130
vt 0.83099157 0.80426503
vt 0.86998943 0.62345601
vt 0.88783357 0.63325498
vt 0.89352302 0.65280142
vt 0.90544342 0.49198957
vt 0.91788248 0.52748929
vt 0.91901523 0.50716320
vt 0.92082966 0.40695030
vt 1.00000000 0.0000000e+0
vn 0.23258576 0.79410608 0.56151527
vn -0.15430543 0.87287156 0.46290935
vn 0.32037498 -0.54692024 0.77345854
vn 0.15430127 -0.87287156 0.46291074
vn 0.18897968 0.80178374 0.56694755
vn -0.18898482 -0.80178374 0.56694583
vn -0.70710787 0.66666666 0.23569903
vn -0.70710572 -0.66666666 -0.23570547
vn -0.46290937 0.87287155 -0.15430546
vn -0.46291079 -0.87287155 0.15430121
vn -0.56694761 0.80178371 0.18897961
vn -0.56694587 -0.80178371 -0.18898482
vn -0.23569906 0.66666667 -0.70710785
vn 0.23570547 -0.66666667 -0.70710571
vn 2.6094560e-6 0.81649659 -0.57735026
vn 1.5065701e-6 -0.94280904 -0.33333333
vn 0.23258988 0.79410289 -0.56151807
vn 0.32037950 -0.54691608 -0.77345962
vn 0.78712170 0.58152246 0.20559924
vn 0.70195971 -0.58152246 0.41119848
vn 0.23570226 0.66666667 0.70710678
vn -0.23570226 -0.66666667 0.70710678
vn -0.15430334 0.87287157 0.46291004
vn 0.15430337 -0.87287157 0.46291003
vn 0.56694674 0.80178371 0.18898222
vn 0.56694674 -0.80178371 -0.18898222
vn 0.70710681 0.66666665 -0.23570224
vn 0.70710681 -0.66666665 0.23570224
vn 0.46291008 0.87287155 0.15430334
vn 0.46291008 -0.87287155 -0.15430334
vn 0.18898227 0.80178373 -0.56694669
vn -0.18898223 -0.80178373 -0.56694670
vn -0.23570226 0.66666667 -0.70710678
vn 0.23570226 -0.66666667 -0.70710678
vn 0.81251992 0.47596315 -0.33655677
vn 0.62694312 -0.73450956 -0.25968834
g Extrude001_Extrude001_auv
usemtl Extrude001_auv
s 1
f 37/222/37 71/221/71 38/211/38
f 38/211/38 39/220/39 37/222/37
f 38/211/38 40/208/40 39/220/39
f 38/175/38 41/142/41 40/174/40
f 38/211/38 67/194/67 41/199/41
f 38/211/38 69/210/69 67/194/67
f 38/211/38 71/221/71 69/210/69
f 39/184/39 71/190/71 37/185/37
f 39/184/39 72/189/72 71/190/71
f 40/149/40 72/134/72 39/145/39
f 41/142/41 42/141/42 40/174/40
f 41/169/41 43/138/43 42/168/42
f 41/158/41 65/148/65 43/147/43
f 41/158/41 67/159/67 65/148/65
f 42/177/42 68/178/68 40/149/40
f 43/147/43 44/146/44 42/126/42
f 43/147/43 45/163/45 44/146/44
f 43/147/43 65/148/65 45/163/45
f 44/192/44 66/191/66 42/177/42
f 45/163/45 46/160/46 44/146/44
f 45/214/45 47/195/47 46/216/46
f 45/214/45 61/202/61 47/195/47
f 45/214/45 63/215/63 61/202/61
f 45/163/45 65/148/65 63/166/63
f 46/131/46 66/130/66 44/132/44
f 47/195/47 48/201/48 46/216/46
f 47/203/47 49/212/49 48/196/48
f 47/203/47 59/213/59 49/212/49
f 47/203/47 61/204/61 59/213/59
f 48/144/48 62/133/62 46/131/46
f 49/212/49 50/209/50 48/196/48
f 49/219/49 51/200/51 50/218/50
f 49/212/49 59/213/59 51/224/51
f 50/186/50 60/183/60 48/162/48
f 51/200/51 52/197/52 50/218/50
f 51/182/51 54/170/54 52/180/52
f 51/182/51 55/179/55 53/171/53
f 51/182/51 57/187/57 55/179/55
f 51/182/51 59/165/59 57/187/57
f 52/197/52 60/217/60 50/218/50
f 53/171/53 54/170/54 51/182/51
f 53/157/53 55/154/55 54/156/54
f 54/193/54 56/198/56 52/206/52
f 55/154/55 56/155/56 54/156/54
f 55/154/55 57/139/57 56/155/56
f 56/198/56 58/207/58 52/206/52
f 57/205/57 58/207/58 56/198/56
f 57/187/57 59/165/59 58/188/58
f 58/207/58 60/223/60 52/206/52
f 59/165/59 60/167/60 58/188/58
f 59/181/59 61/161/61 60/183/60
f 60/183/60 62/164/62 48/162/48
f 61/161/61 62/164/62 60/183/60
f 61/161/61 63/135/63 62/164/62
f 62/133/62 64/129/64 46/131/46
f 63/127/63 64/129/64 62/133/62
f 63/127/63 65/128/65 64/129/64
f 64/129/64 66/130/66 46/131/46
f 65/128/65 66/130/66 64/129/64
f 65/128/65 67/125/67 66/130/66
f 66/191/66 68/178/68 42/177/42
f 67/176/67 68/178/68 66/191/66
f 67/173/67 69/137/69 68/172/68
f 68/178/68 70/150/70 40/149/40
f 69/137/69 70/136/70 68/172/68
f 69/153/69 71/140/71 70/152/70
f 70/150/70 72/134/72 40/149/40
f 71/143/71 72/139/72 70/151/70
o Extrude
#36 vertices, 68 faces
v 0.0000000e+0 0.0000000e+0 0.0000000e+0
v 110.00000000 -1.00000000 0.0000000e+0
v 0.0000000e+0 -1.00000000 0.0000000e+0
v 110.00000000 0.0000000e+0 0.0000000e+0
v 115.00000000 0.0000000e+0 5.00000000
v 115.00000000 -1.00000000 5.00000000
v 124.14213600 0.0000000e+0 -4.14213600
v 124.14213600 -1.00000000 -4.14213600
v 131.21321100 -1.00000000 2.92893200
v 131.21321100 0.0000000e+0 2.92893200
v 124.14213600 -1.00000000 10.00000000
v 124.14213600 0.0000000e+0 10.00000000
v 131.21321100 -1.00000000 17.07106800
v 131.21321100 0.0000000e+0 17.07106800
v 124.14213600 0.0000000e+0 24.14213600
v 124.14213600 -1.00000000 24.14213600
v 115.00000000 0.0000000e+0 15.00000000
v 115.00000000 -1.00000000 15.00000000
v 110.00000000 0.0000000e+0 20.00000000
v 110.00000000 -1.00000000 20.00000000
v 0.0000000e+0 0.0000000e+0 20.00000000
v 0.0000000e+0 -1.00000000 20.00000000
v -5.00000000 0.0000000e+0 15.00000000
v -5.00000000 -1.00000000 15.00000000
v -14.14213600 0.0000000e+0 24.14213600
v -14.14213600 -1.00000000 24.14213600
v -21.21320300 0.0000000e+0 17.07106800
v -21.21320300 -1.00000000 17.07106800
v -14.14213600 0.0000000e+0 10.00000000
v -14.14213600 -1.00000000 10.00000000
v -21.21320300 0.0000000e+0 2.92893200
v -21.21320300 -1.00000000 2.92893200
v -14.14213600 0.0000000e+0 -4.14213600
v -14.14213600 -1.00000000 -4.14213600
v -5.00000000 0.0000000e+0 5.00000000
v -5.00000000 -1.00000000 5.00000000
vt 0.0000000e+0 0.0000000e+0
vt 0.0000000e+0 0.22074637
vt 0.0000000e+0 0.37974378
vt 0.0000000e+0 0.49615366
vt 0.0000000e+0 0.57401257
vt 1.0817246e-4 0.11072506
vt 1.0514783e-3 0.50376914
vt 5.3906071e-3 0.65632887
vt 5.4330420e-3 0.57945161
vt 3.2820007e-2 0.33640899
vt 5.3849573e-2 0.48871858
vt 5.4901051e-2 0.49633406
vt 6.6400243e-2 6.5586456e-2
vt 7.0321024e-2 0.50376914
vt 7.1192836e-2 0.14969339
vt 7.1765219e-2 7.1889967e-2
vt 7.5634042e-2 0.72664989
vt 7.5694054e-2 0.61792904
vt 7.5754066e-2 0.50920818
vt 0.10966189 0.18876624
vt 0.11097280 2.7650350e-2
vt 0.11122457 3.5204749e-2
vt 0.13002447 0.67231947
vt 0.13008448 0.56359861
vt 0.13008448 0.56594244
vt 0.14298177 0.67985861
vt 0.14824975 0.67896078
vt 0.18465496 0.50376914
vt 0.18589414 0.61622162
vt 0.19225784 0.62051286
vt 0.20002326 0.72108455
vt 0.20084883 0.72618545
vt 0.26457267 0.65514252
vt 0.26503840 0.57432287
vt 0.27049544 0.56810554
vt 0.30474963 0.65638559
vt 0.30474963 0.69578521
vt 0.31016294 0.57407079
vt 0.31018417 0.65094805
vt 0.38042576 0.50376914
vt 0.38045579 0.61249000
vt 0.38048582 0.72121087
vt 0.43480126 0.55811456
vt 0.43483130 0.66683542
vt 0.43483130 0.71649706
vt 0.44741099 0.71781934
vt 0.45066657 0.59147228
vt 0.45105792 0.51869817
vt 0.45509261 0.52195281
vt 0.46063374 0.59202236
vt 0.52154388 0.50376914
vt 0.52290936 0.51105852
vt 0.52290936 0.51145686
vt 0.62230346 0.51145686
vt 0.62230346 0.50376914
vt 0.69918076 0.50376914
vt 0.69918076 0.55812957
vt 0.69918076 0.61249001
vt 0.69918076 0.62017774
vt 0.69918076 0.51145686
vt 0.75354119 0.50376914
vt 0.75354119 0.61249001
vt 0.79857486 0.61249001
vt 0.79857486 0.62017774
vt 0.87052277 0.22074637
vt 0.87545216 0.61249001
vt 0.87545216 0.62017774
vt 0.87545216 0.61249001
vt 0.87545216 0.62017774
vt 0.87545216 0.62786546
vt 0.89155234 0.37305597
vt 0.89260381 0.38067145
vt 0.94540191 0.36562089
vt 0.94645339 0.22074637
vt 0.94645339 0.37450090
vt 0.94645339 0.37323637
vt 0.95232942 0.61249001
vt 0.95232942 0.62017774
vt 0.95232942 0.62786546
vt 0.95494229 0.19578703
vt 0.95585255 4.2278205e-2
vt 0.95623114 3.4730537e-2
vt 0.98489202 0.25918501
vt 0.98489202 0.33606227
vt 0.99400034 0.15725059
vt 0.99452194 7.9656114e-2
vt 1.00000000 7.3466262e-2
vn -0.17237062 0.73130660 -0.65990835
vn 0.29710858 -0.63026247 -0.71728356
vn -0.34474124 -0.73130660 -0.58851010
vn 0.20068984 0.85145490 -0.48450814
vn 0.18898224 0.80178373 -0.56694671
vn -0.18898224 -0.80178373 -0.56694671
vn -2.0207251e-7 0.57735017 -0.81649665
vn -1.4288685e-7 -0.81649651 -0.57735036
vn 0.86602526 -0.40824843 -0.28867537
vn 0.86602526 0.40824843 0.28867537
vn 0.38729817 -0.91287099 0.12909952
vn 0.38729817 0.91287099 -0.12909952
vn 0.94280899 -0.33333348 -7.4014901e-17
vn 0.81649645 0.57735046 -1.9229633e-16
vn 0.23570200 0.66666659 0.70710694
vn -0.23570235 -0.66666659 0.70710682
vn -1.3597400e-16 0.81649658 0.57735027
vn -7.8504623e-17 -0.94280904 0.33333333
vn 0.20068984 0.85145490 0.48450814
vn 0.29710858 -0.63026247 0.71728356
vn -0.29710858 0.63026247 0.71728356
vn -0.20068984 -0.85145490 0.48450814
vn 0.18898224 0.80178373 0.56694671
vn -0.18898224 -0.80178373 0.56694671
vn -0.23570230 0.66666668 0.70710676
vn 0.23570225 -0.66666668 0.70710678
vn -0.86602542 0.40824827 -0.28867510
vn -0.86602542 -0.40824827 0.28867510
vn -0.38729836 0.91287092 0.12909943
vn -0.38729836 -0.91287092 -0.12909943
vn -0.86602542 0.40824827 -0.28867510
vn -0.86602542 -0.40824827 0.28867510
vn 0.23570225 0.66666668 -0.70710678
vn -0.23570230 -0.66666668 -0.70710676
vn -0.15430335 0.87287156 -0.46291005
vn 0.15430335 -0.87287156 -0.46291005
g Extrude_Extrude_auv
usemtl Extrude_auv
s 1
f 73/296/73 76/236/76 74/235/74
f 73/244/73 91/305/91 76/304/76
f 73/244/73 93/246/93 91/305/91
f 73/244/73 107/239/107 93/246/93
f 74/235/74 75/295/75 73/296/73
f 74/235/74 92/234/92 75/295/75
f 75/295/75 107/300/107 73/296/73
f 75/295/75 108/297/108 107/300/107
f 76/236/76 77/231/77 74/235/74
f 76/304/76 89/310/89 77/309/77
f 76/304/76 91/305/91 89/310/89
f 77/231/77 78/228/78 74/235/74
f 77/263/77 79/266/79 78/260/78
f 77/263/77 84/265/84 79/266/79
f 77/263/77 89/262/89 84/265/84
f 78/257/78 90/258/90 74/261/74
f 79/256/79 80/255/80 78/257/78
f 79/256/79 81/251/81 80/255/80
f 79/256/79 82/250/82 81/251/81
f 79/266/79 84/265/84 82/268/82
f 80/255/80 83/254/83 78/257/78
f 81/251/81 83/254/83 80/255/80
f 82/250/82 83/254/83 81/251/81
f 82/250/82 84/253/84 83/254/83
f 83/254/83 90/258/90 78/257/78
f 84/291/84 85/287/85 83/290/83
f 84/291/84 86/288/86 85/287/85
f 84/265/84 87/264/87 86/267/86
f 84/265/84 89/262/89 87/264/87
f 85/249/85 88/252/88 83/254/83
f 86/284/86 87/278/87 85/280/85
f 87/278/87 88/279/88 85/280/85
f 87/278/87 89/277/89 88/279/88
f 88/252/88 90/258/90 83/254/83
f 89/259/89 90/258/90 88/252/88
f 89/310/89 92/306/92 90/311/90
f 90/227/90 92/234/92 74/235/74
f 91/305/91 92/306/92 89/310/89
f 91/305/91 93/246/93 92/306/92
f 92/234/92 94/289/94 75/295/75
f 93/246/93 94/245/94 92/306/92
f 93/246/93 96/237/96 94/245/94
f 93/246/93 107/239/107 95/240/95
f 94/298/94 108/308/108 75/299/75
f 95/240/95 96/237/96 93/246/93
f 95/229/95 98/243/98 96/233/96
f 95/240/95 101/230/101 97/225/97
f 95/240/95 107/239/107 101/230/101
f 96/307/96 108/308/108 94/298/94
f 97/238/97 98/243/98 95/229/95
f 97/276/97 100/272/100 98/275/98
f 97/276/97 101/274/101 99/273/99
f 98/243/98 102/242/102 96/233/96
f 99/273/99 100/272/100 97/276/97
f 99/273/99 102/271/102 100/272/100
f 100/248/100 102/242/102 98/243/98
f 101/274/101 102/271/102 99/273/99
f 101/274/101 104/269/104 102/271/102
f 101/285/101 105/286/105 103/281/103
f 101/230/101 107/239/107 105/226/105
f 102/242/102 108/232/108 96/233/96
f 103/270/103 104/269/104 101/274/101
f 103/302/103 106/292/106 104/301/104
f 104/247/104 106/241/106 102/242/102
f 105/294/105 106/293/106 103/303/103
f 105/288/105 108/282/108 106/287/106
f 106/241/106 108/232/108 102/242/102
f 107/283/107 108/282/108 105/288/105
