# Exported from Wings 3D 2.1.7
mtllib XMaze_UV.mtl
o Extrude002
#36 vertices, 68 faces
v 109.99999200 -1.00000000 -1.00000000
v 115.00003800 -1.00000000 4.00000000
v 109.99999200 -2.00000000 -1.00000000
v 115.00003800 -2.00000000 4.00000000
v 124.14209000 -1.00000000 -5.14213600
v 124.14209000 -2.00000000 -5.14213600
v 132.21321100 -1.00000000 2.92890100
v 132.21321100 -2.00000000 2.92890100
v 125.14213600 -1.00000000 10.00003300
v 125.14213600 -2.00000000 10.00003300
v 132.21321100 -1.00000000 17.07103700
v 132.21321100 -2.00000000 17.07103700
v 124.14218100 -1.00000000 25.14213600
v 124.14218100 -2.00000000 25.14213600
v 114.99996200 -1.00000000 16.00000000
v 114.99996200 -2.00000000 16.00000000
v 110.00000800 -1.00000000 21.00000000
v 110.00000800 -2.00000000 21.00000000
v 110.00000000 -1.00000000 20.00000000
v 110.00000000 -2.00000000 20.00000000
v 115.00000000 -1.00000000 15.00000000
v 115.00000000 -2.00000000 15.00000000
v 124.14213600 -1.00000000 24.14213600
v 124.14213600 -2.00000000 24.14213600
v 131.21321100 -2.00000000 17.07106800
v 131.21321100 -1.00000000 17.07106800
v 124.14213600 -1.00000000 10.00000000
v 124.14213600 -2.00000000 10.00000000
v 131.21321100 -2.00000000 2.92893200
v 131.21321100 -1.00000000 2.92893200
v 124.14213600 -1.00000000 -4.14213600
v 124.14213600 -2.00000000 -4.14213600
v 115.00000000 -1.00000000 5.00000000
v 115.00000000 -2.00000000 5.00000000
v 110.00000000 -1.00000000 0.0000000e+0
v 110.00000000 -2.00000000 0.0000000e+0
vn -0.23259076 0.79410569 -0.56151375
vn -2.6541116e-6 0.81649658 -0.57735027
vn -0.32038172 -0.54691973 -0.77345611
vn -1.5323521e-6 -0.94280904 -0.33333333
vn -2.8284103e-6 0.81649650 -0.57735039
vn -3.9999758e-6 -0.57735015 -0.81649666
vn 0.56694560 0.80178386 -0.18898500
vn 0.56694734 -0.80178386 0.18897976
vn 0.46291056 0.87287164 0.15430135
vn 0.46290917 -0.87287164 -0.15430554
vn 0.70710554 0.66666678 -0.23570567
vn 0.70710773 -0.66666678 0.23569910
vn 0.18898470 0.80178370 0.56694593
vn -0.18897971 -0.80178370 0.56694760
vn -0.15430124 0.87287157 0.46291074
vn 0.15430547 -0.87287157 0.46290933
vn 0.23259112 0.56151582 0.79410412
vn -0.72597817 -0.56151582 0.39705880
vn -0.78712246 0.58152302 -0.20559478
vn -0.70196038 -0.58152302 -0.41119655
vn -0.23570226 0.66666667 -0.70710678
vn 0.23570226 -0.66666667 -0.70710678
vn 1.6977487e-7 0.72760679 -0.68599443
vn 1.0552894e-7 -0.90453399 -0.42640152
vn -0.57735008 -0.81649672 4.5324673e-17
vn -0.33333319 0.94280909 7.8504627e-17
vn -0.81649645 0.57735046 0.0000000e+0
vn -0.57735008 -0.81649672 0.0000000e+0
vn -0.68599416 -0.72760704 0.0000000e+0
vn -0.42640126 0.90453412 0.0000000e+0
vn -0.15430319 0.87287152 0.46291018
vn 0.15430342 -0.87287152 0.46291010
vn 0.23570226 0.66666667 0.70710678
vn -0.23570226 -0.66666667 0.70710678
vn -0.81251888 0.47596254 0.33656015
vn -0.62694264 -0.73450899 0.25969108
g Extrude002_default
usemtl default
s 1
f 1//1 35//35 2//2
f 2//2 3//3 1//1
f 2//2 4//4 3//3
f 2//2 6//6 4//4
f 2//2 31//31 5//5
f 2//2 33//33 31//31
f 2//2 35//35 33//33
f 3//3 35//35 1//1
f 3//3 36//36 35//35
f 4//4 36//36 3//3
f 5//5 6//6 2//2
f 5//5 7//7 6//6
f 5//5 31//31 7//7
f 6//6 32//32 4//4
f 7//7 8//8 6//6
f 7//7 9//9 8//8
f 7//7 30//30 9//9
f 7//7 31//31 30//30
f 8//8 32//32 6//6
f 9//9 10//10 8//8
f 9//9 11//11 10//10
f 9//9 26//26 11//11
f 9//9 27//27 26//26
f 9//9 30//30 27//27
f 10//10 29//29 8//8
f 11//11 12//12 10//10
f 11//11 13//13 12//12
f 11//11 26//26 13//13
f 12//12 25//25 10//10
f 13//13 14//14 12//12
f 13//13 15//15 14//14
f 13//13 23//23 15//15
f 13//13 26//26 23//23
f 14//14 25//25 12//12
f 15//15 16//16 14//14
f 15//15 17//17 16//16
f 15//15 19//19 17//17
f 15//15 21//21 19//19
f 15//15 23//23 21//21
f 16//16 24//24 14//14
f 17//17 18//18 16//16
f 17//17 19//19 18//18
f 18//18 20//20 16//16
f 19//19 20//20 18//18
f 19//19 21//21 20//20
f 20//20 22//22 16//16
f 21//21 22//22 20//20
f 21//21 23//23 22//22
f 22//22 24//24 16//16
f 23//23 24//24 22//22
f 23//23 25//25 24//24
f 23//23 26//26 25//25
f 24//24 25//25 14//14
f 25//25 28//28 10//10
f 26//26 27//27 25//25
f 27//27 28//28 25//25
f 27//27 29//29 28//28
f 27//27 30//30 29//29
f 28//28 29//29 10//10
f 29//29 32//32 8//8
f 30//30 31//31 29//29
f 31//31 32//32 29//29
f 31//31 33//33 32//32
f 32//32 34//34 4//4
f 33//33 34//34 32//32
f 33//33 35//35 34//34
f 34//34 36//36 4//4
f 35//35 36//36 34//34
o Extrude001
#36 vertices, 68 faces
v 0.0000000e+0 -1.00000000 21.00000000
v -4.99995500 -1.00000000 16.00000000
v 0.0000000e+0 -2.00000000 21.00000000
v -4.99995500 -2.00000000 16.00000000
v -14.14217300 -1.00000000 25.14213600
v -14.14217300 -2.00000000 25.14213600
v -22.21320300 -1.00000000 17.07103200
v -22.21320300 -2.00000000 17.07103200
v -15.14213600 -1.00000000 10.00002900
v -15.14213600 -2.00000000 10.00002900
v -22.21320300 -1.00000000 2.92889600
v -22.21320300 -2.00000000 2.92889600
v -14.14209800 -1.00000000 -5.14213600
v -14.14209800 -2.00000000 -5.14213600
v -5.00004500 -1.00000000 4.00000000
v -5.00004500 -2.00000000 4.00000000
v 0.0000000e+0 -1.00000000 -1.00000000
v 0.0000000e+0 -2.00000000 -1.00000000
v 0.0000000e+0 -1.00000000 0.0000000e+0
v 0.0000000e+0 -2.00000000 0.0000000e+0
v -5.00000000 -1.00000000 5.00000000
v -5.00000000 -2.00000000 5.00000000
v -14.14213600 -1.00000000 -4.14213600
v -14.14213600 -2.00000000 -4.14213600
v -21.21320300 -1.00000000 2.92893200
v -21.21320300 -2.00000000 2.92893200
v -14.14213600 -1.00000000 10.00000000
v -14.14213600 -2.00000000 10.00000000
v -21.21320300 -1.00000000 17.07106800
v -21.21320300 -2.00000000 17.07106800
v -14.14213600 -1.00000000 24.14213600
v -14.14213600 -2.00000000 24.14213600
v -5.00000000 -1.00000000 15.00000000
v -5.00000000 -2.00000000 15.00000000
v 0.0000000e+0 -1.00000000 20.00000000
v 0.0000000e+0 -2.00000000 20.00000000
vn 0.23258576 0.79410608 0.56151527
vn -0.15430543 0.87287156 0.46290935
vn 0.32037498 -0.54692024 0.77345854
vn 0.15430127 -0.87287156 0.46291074
vn 0.18897968 0.80178374 0.56694755
vn -0.18898482 -0.80178374 0.56694583
vn -0.70710787 0.66666666 0.23569903
vn -0.70710572 -0.66666666 -0.23570547
vn -0.46290937 0.87287155 -0.15430546
vn -0.46291079 -0.87287155 0.15430121
vn -0.56694761 0.80178371 0.18897961
vn -0.56694587 -0.80178371 -0.18898482
vn -0.23569906 0.66666667 -0.70710785
vn 0.23570547 -0.66666667 -0.70710571
vn 2.6094560e-6 0.81649659 -0.57735026
vn 1.5065701e-6 -0.94280904 -0.33333333
vn 0.23258988 0.79410289 -0.56151807
vn 0.32037950 -0.54691608 -0.77345962
vn 0.78712170 0.58152246 0.20559924
vn 0.70195971 -0.58152246 0.41119848
vn 0.23570226 0.66666667 0.70710678
vn -0.23570226 -0.66666667 0.70710678
vn -0.15430334 0.87287157 0.46291004
vn 0.15430337 -0.87287157 0.46291003
vn 0.56694674 0.80178371 0.18898222
vn 0.56694674 -0.80178371 -0.18898222
vn 0.70710681 0.66666665 -0.23570224
vn 0.70710681 -0.66666665 0.23570224
vn 0.46291008 0.87287155 0.15430334
vn 0.46291008 -0.87287155 -0.15430334
vn 0.18898227 0.80178373 -0.56694669
vn -0.18898223 -0.80178373 -0.56694670
vn -0.23570226 0.66666667 -0.70710678
vn 0.23570226 -0.66666667 -0.70710678
vn 0.81251992 0.47596315 -0.33655677
vn 0.62694312 -0.73450956 -0.25968834
g Extrude001_default
usemtl default
s 1
f 37//37 71//71 38//38
f 38//38 39//39 37//37
f 38//38 40//40 39//39
f 38//38 41//41 40//40
f 38//38 67//67 41//41
f 38//38 69//69 67//67
f 38//38 71//71 69//69
f 39//39 71//71 37//37
f 39//39 72//72 71//71
f 40//40 72//72 39//39
f 41//41 42//42 40//40
f 41//41 43//43 42//42
f 41//41 65//65 43//43
f 41//41 67//67 65//65
f 42//42 68//68 40//40
f 43//43 44//44 42//42
f 43//43 45//45 44//44
f 43//43 65//65 45//45
f 44//44 66//66 42//42
f 45//45 46//46 44//44
f 45//45 47//47 46//46
f 45//45 61//61 47//47
f 45//45 63//63 61//61
f 45//45 65//65 63//63
f 46//46 66//66 44//44
f 47//47 48//48 46//46
f 47//47 49//49 48//48
f 47//47 59//59 49//49
f 47//47 61//61 59//59
f 48//48 62//62 46//46
f 49//49 50//50 48//48
f 49//49 51//51 50//50
f 49//49 59//59 51//51
f 50//50 60//60 48//48
f 51//51 52//52 50//50
f 51//51 54//54 52//52
f 51//51 55//55 53//53
f 51//51 57//57 55//55
f 51//51 59//59 57//57
f 52//52 60//60 50//50
f 53//53 54//54 51//51
f 53//53 55//55 54//54
f 54//54 56//56 52//52
f 55//55 56//56 54//54
f 55//55 57//57 56//56
f 56//56 58//58 52//52
f 57//57 58//58 56//56
f 57//57 59//59 58//58
f 58//58 60//60 52//52
f 59//59 60//60 58//58
f 59//59 61//61 60//60
f 60//60 62//62 48//48
f 61//61 62//62 60//60
f 61//61 63//63 62//62
f 62//62 64//64 46//46
f 63//63 64//64 62//62
f 63//63 65//65 64//64
f 64//64 66//66 46//46
f 65//65 66//66 64//64
f 65//65 67//67 66//66
f 66//66 68//68 42//42
f 67//67 68//68 66//66
f 67//67 69//69 68//68
f 68//68 70//70 40//40
f 69//69 70//70 68//68
f 69//69 71//71 70//70
f 70//70 72//72 40//40
f 71//71 72//72 70//70
o Extrude
#36 vertices, 68 faces
v 0.0000000e+0 0.0000000e+0 0.0000000e+0
v 110.00000000 -1.00000000 0.0000000e+0
v 0.0000000e+0 -1.00000000 0.0000000e+0
v 110.00000000 0.0000000e+0 0.0000000e+0
v 115.00000000 0.0000000e+0 5.00000000
v 115.00000000 -1.00000000 5.00000000
v 124.14213600 0.0000000e+0 -4.14213600
v 124.14213600 -1.00000000 -4.14213600
v 131.21321100 -1.00000000 2.92893200
v 131.21321100 0.0000000e+0 2.92893200
v 124.14213600 -1.00000000 10.00000000
v 124.14213600 0.0000000e+0 10.00000000
v 131.21321100 -1.00000000 17.07106800
v 131.21321100 0.0000000e+0 17.07106800
v 124.14213600 0.0000000e+0 24.14213600
v 124.14213600 -1.00000000 24.14213600
v 115.00000000 0.0000000e+0 15.00000000
v 115.00000000 -1.00000000 15.00000000
v 110.00000000 0.0000000e+0 20.00000000
v 110.00000000 -1.00000000 20.00000000
v 0.0000000e+0 0.0000000e+0 20.00000000
v 0.0000000e+0 -1.00000000 20.00000000
v -5.00000000 0.0000000e+0 15.00000000
v -5.00000000 -1.00000000 15.00000000
v -14.14213600 0.0000000e+0 24.14213600
v -14.14213600 -1.00000000 24.14213600
v -21.21320300 0.0000000e+0 17.07106800
v -21.21320300 -1.00000000 17.07106800
v -14.14213600 0.0000000e+0 10.00000000
v -14.14213600 -1.00000000 10.00000000
v -21.21320300 0.0000000e+0 2.92893200
v -21.21320300 -1.00000000 2.92893200
v -14.14213600 0.0000000e+0 -4.14213600
v -14.14213600 -1.00000000 -4.14213600
v -5.00000000 0.0000000e+0 5.00000000
v -5.00000000 -1.00000000 5.00000000
vt 0.0000000e+0 0.0000000e+0
vt 0.0000000e+0 0.22074637
vt 0.0000000e+0 0.37974378
vt 0.0000000e+0 0.49615366
vt 0.0000000e+0 0.57401257
vt 1.0817246e-4 0.11072506
vt 1.0514783e-3 0.50376914
vt 5.3906071e-3 0.65632887
vt 5.4330420e-3 0.57945161
vt 3.2820007e-2 0.33640899
vt 5.3849573e-2 0.48871858
vt 5.4901051e-2 0.49633406
vt 6.6400243e-2 6.5586456e-2
vt 7.0321024e-2 0.50376914
vt 7.1192836e-2 0.14969339
vt 7.1765219e-2 7.1889967e-2
vt 7.5634042e-2 0.72664989
vt 7.5694054e-2 0.61792904
vt 7.5754066e-2 0.50920818
vt 0.10966189 0.18876624
vt 0.11097280 2.7650350e-2
vt 0.11122457 3.5204749e-2
vt 0.13002447 0.67231947
vt 0.13008448 0.56359861
vt 0.13008448 0.56594244
vt 0.14298177 0.67985861
vt 0.14824975 0.67896078
vt 0.18465496 0.50376914
vt 0.18589414 0.61622162
vt 0.19225784 0.62051286
vt 0.20002326 0.72108455
vt 0.20084883 0.72618545
vt 0.26457267 0.65514252
vt 0.26503840 0.57432287
vt 0.27049544 0.56810554
vt 0.30474963 0.65638559
vt 0.30474963 0.69578521
vt 0.31016294 0.57407079
vt 0.31018417 0.65094805
vt 0.38042576 0.50376914
vt 0.38045579 0.61249000
vt 0.38048582 0.72121087
vt 0.43480126 0.55811456
vt 0.43483130 0.66683542
vt 0.43483130 0.71649706
vt 0.44741099 0.71781934
vt 0.45066657 0.59147228
vt 0.45105792 0.51869817
vt 0.45509261 0.52195281
vt 0.46063374 0.59202236
vt 0.52154388 0.50376914
vt 0.52290936 0.51105852
vt 0.52290936 0.51145686
vt 0.62230346 0.51145686
vt 0.62230346 0.50376914
vt 0.69918076 0.50376914
vt 0.69918076 0.55812957
vt 0.69918076 0.61249001
vt 0.69918076 0.62017774
vt 0.69918076 0.51145686
vt 0.75354119 0.50376914
vt 0.75354119 0.61249001
vt 0.79857486 0.61249001
vt 0.79857486 0.62017774
vt 0.87052277 0.22074637
vt 0.87545216 0.61249001
vt 0.87545216 0.62017774
vt 0.87545216 0.61249001
vt 0.87545216 0.62017774
vt 0.87545216 0.62786546
vt 0.89155234 0.37305597
vt 0.89260381 0.38067145
vt 0.94540191 0.36562089
vt 0.94645339 0.22074637
vt 0.94645339 0.37450090
vt 0.94645339 0.37323637
vt 0.95232942 0.61249001
vt 0.95232942 0.62017774
vt 0.95232942 0.62786546
vt 0.95494229 0.19578703
vt 0.95585255 4.2278205e-2
vt 0.95623114 3.4730537e-2
vt 0.98489202 0.25918501
vt 0.98489202 0.33606227
vt 0.99400034 0.15725059
vt 0.99452194 7.9656114e-2
vt 1.00000000 7.3466262e-2
vn -0.17237062 0.73130660 -0.65990835
vn 0.29710858 -0.63026247 -0.71728356
vn -0.34474124 -0.73130660 -0.58851010
vn 0.20068984 0.85145490 -0.48450814
vn 0.18898224 0.80178373 -0.56694671
vn -0.18898224 -0.80178373 -0.56694671
vn -2.0207251e-7 0.57735017 -0.81649665
vn -1.4288685e-7 -0.81649651 -0.57735036
vn 0.86602526 -0.40824843 -0.28867537
vn 0.86602526 0.40824843 0.28867537
vn 0.38729817 -0.91287099 0.12909952
vn 0.38729817 0.91287099 -0.12909952
vn 0.94280899 -0.33333348 -7.4014901e-17
vn 0.81649645 0.57735046 -1.9229633e-16
vn 0.23570200 0.66666659 0.70710694
vn -0.23570235 -0.66666659 0.70710682
vn -1.3597400e-16 0.81649658 0.57735027
vn -7.8504623e-17 -0.94280904 0.33333333
vn 0.20068984 0.85145490 0.48450814
vn 0.29710858 -0.63026247 0.71728356
vn -0.29710858 0.63026247 0.71728356
vn -0.20068984 -0.85145490 0.48450814
vn 0.18898224 0.80178373 0.56694671
vn -0.18898224 -0.80178373 0.56694671
vn -0.23570230 0.66666668 0.70710676
vn 0.23570225 -0.66666668 0.70710678
vn -0.86602542 0.40824827 -0.28867510
vn -0.86602542 -0.40824827 0.28867510
vn -0.38729836 0.91287092 0.12909943
vn -0.38729836 -0.91287092 -0.12909943
vn -0.86602542 0.40824827 -0.28867510
vn -0.86602542 -0.40824827 0.28867510
vn 0.23570225 0.66666668 -0.70710678
vn -0.23570230 -0.66666668 -0.70710676
vn -0.15430335 0.87287156 -0.46291005
vn 0.15430335 -0.87287156 -0.46291005
g Extrude_Extrude_auv
usemtl Extrude_auv
s 1
f 73/72/73 76/12/76 74/11/74
f 73/20/73 91/81/91 76/80/76
f 73/20/73 93/22/93 91/81/91
f 73/20/73 107/15/107 93/22/93
f 74/11/74 75/71/75 73/72/73
f 74/11/74 92/10/92 75/71/75
f 75/71/75 107/76/107 73/72/73
f 75/71/75 108/73/108 107/76/107
f 76/12/76 77/7/77 74/11/74
f 76/80/76 89/86/89 77/85/77
f 76/80/76 91/81/91 89/86/89
f 77/7/77 78/4/78 74/11/74
f 77/39/77 79/42/79 78/36/78
f 77/39/77 84/41/84 79/42/79
f 77/39/77 89/38/89 84/41/84
f 78/33/78 90/34/90 74/37/74
f 79/32/79 80/31/80 78/33/78
f 79/32/79 81/27/81 80/31/80
f 79/32/79 82/26/82 81/27/81
f 79/42/79 84/41/84 82/44/82
f 80/31/80 83/30/83 78/33/78
f 81/27/81 83/30/83 80/31/80
f 82/26/82 83/30/83 81/27/81
f 82/26/82 84/29/84 83/30/83
f 83/30/83 90/34/90 78/33/78
f 84/67/84 85/63/85 83/66/83
f 84/67/84 86/64/86 85/63/85
f 84/41/84 87/40/87 86/43/86
f 84/41/84 89/38/89 87/40/87
f 85/25/85 88/28/88 83/30/83
f 86/60/86 87/54/87 85/56/85
f 87/54/87 88/55/88 85/56/85
f 87/54/87 89/53/89 88/55/88
f 88/28/88 90/34/90 83/30/83
f 89/35/89 90/34/90 88/28/88
f 89/86/89 92/82/92 90/87/90
f 90/3/90 92/10/92 74/11/74
f 91/81/91 92/82/92 89/86/89
f 91/81/91 93/22/93 92/82/92
f 92/10/92 94/65/94 75/71/75
f 93/22/93 94/21/94 92/82/92
f 93/22/93 96/13/96 94/21/94
f 93/22/93 107/15/107 95/16/95
f 94/74/94 108/84/108 75/75/75
f 95/16/95 96/13/96 93/22/93
f 95/5/95 98/19/98 96/9/96
f 95/16/95 101/6/101 97/1/97
f 95/16/95 107/15/107 101/6/101
f 96/83/96 108/84/108 94/74/94
f 97/14/97 98/19/98 95/5/95
f 97/52/97 100/48/100 98/51/98
f 97/52/97 101/50/101 99/49/99
f 98/19/98 102/18/102 96/9/96
f 99/49/99 100/48/100 97/52/97
f 99/49/99 102/47/102 100/48/100
f 100/24/100 102/18/102 98/19/98
f 101/50/101 102/47/102 99/49/99
f 101/50/101 104/45/104 102/47/102
f 101/61/101 105/62/105 103/57/103
f 101/6/101 107/15/107 105/2/105
f 102/18/102 108/8/108 96/9/96
f 103/46/103 104/45/104 101/50/101
f 103/78/103 106/68/106 104/77/104
f 104/23/104 106/17/106 102/18/102
f 105/70/105 106/69/106 103/79/103
f 105/64/105 108/58/108 106/63/106
f 106/17/106 108/8/108 102/18/102
f 107/59/107 108/58/108 105/64/105
