# Created by FreeCAD <http://www.freecadweb.org>
v 0.000000 0.000000 0.000000
v 20.000000 0.000000 0.000000
v 0.000000 0.000000 1.000000
v 20.000000 0.000000 1.000000
v 10.000000 10.000000 0.000000
v 10.000000 10.000000 1.000000
vn 0.000000 -1.000000 0.000000
vn 0.000000 -1.000000 0.000000
vn 0.707107 0.707107 0.000000
vn 0.707107 0.707107 -0.000000
vn -0.707107 0.707107 0.000000
vn -0.707107 0.707107 0.000000
vn 0.000000 0.000000 -1.000000
vn 0.000000 0.000000 1.000000
f 1//1 2//1 3//1
f 3//2 2//2 4//2
f 2//3 5//3 6//3
f 2//4 6//4 4//4
f 5//5 1//5 6//5
f 6//6 1//6 3//6
f 1//7 5//7 2//7
f 6//8 3//8 4//8
