# Created by FreeCAD <http://www.freecadweb.org>
v -3.356399 0.000000 4.000000
v 0.000000 0.000000 0.000000
v 0.000000 -1.000000 0.000000
v -3.356399 -1.000000 4.000000
v 113.287201 -1.000000 -0.000000
v 113.287201 -0.000000 -0.000000
v 116.643600 0.000000 4.000000
v 116.643600 -1.000000 4.000000
v 121.643600 0.000000 4.000000
v 121.643600 -1.000000 4.000000
v 133.213776 -0.000000 -9.788800
v 133.213776 -1.000000 -9.788800
v 137.810043 -0.000000 -5.932075
v 137.810043 -1.000000 -5.932075
v 131.154251 0.000000 2.000000
v 131.154251 -1.000000 2.000000
v 131.154251 0.000000 8.000000
v 131.154251 -1.000000 8.000000
v 137.810043 0.000000 15.932075
v 137.810043 -1.000000 15.932075
v 133.213776 0.000000 19.788799
v 133.213776 -1.000000 19.788799
v 121.643600 0.000000 6.000000
v 121.643600 -1.000000 6.000000
v 116.643600 0.000000 6.000000
v 116.643600 -1.000000 6.000000
v 113.287201 0.000000 10.000000
v 113.287201 -1.000000 10.000000
v 0.000000 0.000000 10.000000
v 0.000000 -1.000000 10.000000
v -3.356399 0.000000 6.000000
v -3.356399 -1.000000 6.000000
v -8.356399 0.000000 6.000000
v -8.356399 -1.000000 6.000000
v -19.926575 -1.000000 19.788799
v -19.926575 0.000000 19.788799
v -24.522842 0.000000 15.932075
v -24.522842 -1.000000 15.932075
v -17.867041 -1.000000 8.000000
v -17.867041 0.000000 8.000000
v -17.867041 0.000000 2.000000
v -17.867041 -1.000000 2.000000
v -24.522842 -0.000000 -5.932075
v -24.522842 -1.000000 -5.932075
v -19.926575 -0.000000 -9.788800
v -19.926575 -1.000000 -9.788800
v -8.356399 0.000000 4.000000
v -8.356399 -1.000000 4.000000
v -8.356399 -1.000000 6.000000
v -3.356399 -1.000000 6.000000
v -8.356399 -3.000000 6.000000
v -3.356399 -3.000000 6.000000
v 0.000000 -1.000000 10.000000
v 0.000000 -3.000000 10.000000
v 0.000000 -1.000000 11.500000
v 0.000000 -3.000000 11.500000
v -3.356399 -1.000000 7.500000
v -3.356399 -3.000000 7.500000
v -8.356399 -1.000000 7.500000
v -8.356399 -3.000000 7.500000
v -19.926575 -1.000000 21.288799
v -19.926575 -3.000000 21.288799
v -26.022842 -1.000000 15.932075
v -26.022842 -3.000000 15.932075
v -19.367041 -1.000000 8.000000
v -19.367041 -3.000000 8.000000
v -19.367041 -1.000000 2.000000
v -19.367041 -3.000000 2.000000
v -26.022842 -3.000000 -5.932075
v -26.022842 -1.000000 -5.932075
v -19.926575 -1.000000 -11.288800
v -19.926575 -3.000000 -11.288800
v -8.356399 -3.000000 2.500000
v -8.356399 -1.000000 2.500000
v -3.356399 -1.000000 2.500000
v -3.356399 -3.000000 2.500000
v -0.000000 -1.000000 -1.500000
v -0.000000 -3.000000 -1.500000
v -0.000000 -1.000000 0.000000
v -0.000000 -3.000000 0.000000
v -3.356399 -1.000000 4.000000
v -3.356399 -3.000000 4.000000
v -8.356399 -1.000000 4.000000
v -8.356399 -3.000000 4.000000
v -19.926575 -1.000000 -9.788800
v -19.926575 -3.000000 -9.788800
v -24.522842 -1.000000 -5.932075
v -24.522842 -3.000000 -5.932075
v -17.867041 -1.000000 2.000000
v -17.867041 -3.000000 2.000000
v -17.867041 -1.000000 8.000000
v -17.867041 -3.000000 8.000000
v -24.522842 -1.000000 15.932075
v -24.522842 -3.000000 15.932075
v -19.926575 -1.000000 19.788799
v -19.926575 -3.000000 19.788799
v 113.287201 -1.000000 11.500000
v 113.287201 -1.000000 10.000000
v 113.287201 -3.000000 10.000000
v 113.287201 -3.000000 11.500000
v 116.643600 -1.000000 7.500000
v 116.643600 -3.000000 7.500000
v 121.643600 -1.000000 7.500000
v 121.643600 -3.000000 7.500000
v 133.213776 -3.000000 21.288799
v 133.213776 -1.000000 21.288799
v 139.310043 -1.000000 15.932075
v 139.310043 -3.000000 15.932075
v 132.654251 -1.000000 8.000000
v 132.654251 -3.000000 8.000000
v 132.654251 -1.000000 2.000000
v 132.654251 -3.000000 2.000000
v 139.310043 -1.000000 -5.932075
v 139.310043 -3.000000 -5.932075
v 133.213776 -1.000000 -11.288800
v 133.213776 -3.000000 -11.288800
v 121.643600 -1.000000 2.500000
v 121.643600 -3.000000 2.500000
v 116.643600 -1.000000 2.500000
v 116.643600 -3.000000 2.500000
v 113.287201 -1.000000 -1.500000
v 113.287201 -3.000000 -1.500000
v 113.287201 -1.000000 0.000000
v 113.287201 -3.000000 0.000000
v 116.643600 -1.000000 4.000000
v 116.643600 -3.000000 4.000000
v 121.643600 -1.000000 4.000000
v 121.643600 -3.000000 4.000000
v 133.213776 -1.000000 -9.788800
v 133.213776 -3.000000 -9.788800
v 137.810043 -1.000000 -5.932075
v 137.810043 -3.000000 -5.932075
v 131.154251 -1.000000 2.000000
v 131.154251 -3.000000 2.000000
v 131.154251 -1.000000 8.000000
v 131.154251 -3.000000 8.000000
v 137.810043 -1.000000 15.932075
v 137.810043 -3.000000 15.932075
v 133.213776 -1.000000 19.788799
v 133.213776 -3.000000 19.788799
v 121.643600 -1.000000 6.000000
v 121.643600 -3.000000 6.000000
v 116.643600 -1.000000 6.000000
v 116.643600 -3.000000 6.000000
vn -0.766044 0.000000 -0.642788
vn -0.766044 -0.000000 -0.642788
vn -0.000000 -0.000000 -1.000000
vn -0.000000 -0.000000 -1.000000
vn 0.766044 -0.000000 -0.642788
vn 0.766044 0.000000 -0.642788
vn 0.000000 0.000000 -1.000000
vn 0.000000 0.000000 -1.000000
vn -0.766044 -0.000000 -0.642788
vn -0.766044 0.000000 -0.642788
vn 0.642788 0.000000 -0.766044
vn 0.642788 0.000000 -0.766044
vn 0.766045 0.000000 0.642787
vn 0.766045 0.000000 0.642787
vn 1.000000 0.000000 -0.000000
vn 1.000000 0.000000 0.000000
vn 0.766045 0.000000 -0.642787
vn 0.766045 0.000000 -0.642787
vn 0.642787 0.000000 0.766045
vn 0.642787 0.000000 0.766045
vn -0.766044 0.000000 0.642788
vn -0.766044 0.000000 0.642788
vn 0.000000 0.000000 1.000000
vn 0.000000 0.000000 1.000000
vn 0.766044 0.000000 0.642788
vn 0.766044 0.000000 0.642788
vn 0.000000 0.000000 1.000000
vn 0.000000 0.000000 1.000000
vn -0.766044 0.000000 0.642788
vn -0.766044 0.000000 0.642788
vn 0.000000 0.000000 1.000000
vn 0.000000 0.000000 1.000000
vn 0.766044 0.000000 0.642788
vn 0.766044 0.000000 0.642788
vn -0.642787 0.000000 0.766045
vn -0.642787 0.000000 0.766045
vn -0.766044 -0.000000 -0.642788
vn -0.766044 0.000000 -0.642788
vn -1.000000 0.000000 0.000000
vn -1.000000 -0.000000 0.000000
vn -0.766044 0.000000 0.642788
vn -0.766044 0.000000 0.642788
vn -0.642788 -0.000000 -0.766044
vn -0.642788 0.000000 -0.766044
vn 0.766044 0.000000 -0.642788
vn 0.766044 0.000000 -0.642788
vn 0.000000 0.000000 -1.000000
vn 0.000000 0.000000 -1.000000
vn 0.000000 1.000000 -0.000000
vn 0.000000 1.000000 -0.000000
vn 0.000000 1.000000 -0.000000
vn 0.000000 1.000000 -0.000000
vn 0.000000 1.000000 -0.000000
vn 0.000000 1.000000 -0.000000
vn 0.000000 1.000000 -0.000000
vn 0.000000 1.000000 -0.000000
vn 0.000000 1.000000 -0.000000
vn 0.000000 1.000000 -0.000000
vn 0.000000 1.000000 -0.000000
vn 0.000000 1.000000 -0.000000
vn 0.000000 1.000000 -0.000000
vn 0.000000 1.000000 -0.000000
vn 0.000000 1.000000 -0.000000
vn 0.000000 1.000000 -0.000000
vn 0.000000 1.000000 -0.000000
vn 0.000000 1.000000 -0.000000
vn 0.000000 1.000000 -0.000000
vn 0.000000 1.000000 -0.000000
vn 0.000000 1.000000 -0.000000
vn 0.000000 1.000000 -0.000000
vn 0.000000 -1.000000 0.000000
vn 0.000000 -1.000000 0.000000
vn 0.000000 -1.000000 0.000000
vn 0.000000 -1.000000 0.000000
vn 0.000000 -1.000000 0.000000
vn 0.000000 -1.000000 0.000000
vn 0.000000 -1.000000 0.000000
vn 0.000000 -1.000000 0.000000
vn 0.000000 -1.000000 0.000000
vn 0.000000 -1.000000 0.000000
vn 0.000000 -1.000000 0.000000
vn -0.000000 -1.000000 0.000000
vn 0.000000 -1.000000 0.000000
vn -0.000000 -1.000000 0.000000
vn 0.000000 -1.000000 0.000000
vn 0.000000 -1.000000 0.000000
vn 0.000000 -1.000000 0.000000
vn -0.000000 -1.000000 0.000000
vn 0.000000 -1.000000 0.000000
vn 0.000000 -1.000000 0.000000
vn -0.000000 -1.000000 0.000000
vn 0.000000 -1.000000 0.000000
vn 0.000000 0.000000 -1.000000
vn 0.000000 0.000000 -1.000000
vn 0.766044 0.000000 -0.642788
vn 0.766044 0.000000 -0.642788
vn 1.000000 0.000000 -0.000000
vn 1.000000 0.000000 0.000000
vn -0.766044 0.000000 0.642788
vn -0.766044 0.000000 0.642788
vn 0.000000 0.000000 1.000000
vn 0.000000 0.000000 1.000000
vn 0.766044 0.000000 0.642788
vn 0.766044 0.000000 0.642788
vn -0.660073 0.000000 0.751202
vn -0.660073 0.000000 0.751202
vn -0.766044 -0.000000 -0.642788
vn -0.766044 0.000000 -0.642788
vn -1.000000 -0.000000 -0.000000
vn -1.000000 0.000000 0.000000
vn -0.766044 0.000000 0.642788
vn -0.766044 0.000000 0.642788
vn -0.660073 -0.000000 -0.751202
vn -0.660073 0.000000 -0.751202
vn 0.766044 0.000000 -0.642788
vn 0.766044 0.000000 -0.642788
vn 0.000000 0.000000 -1.000000
vn 0.000000 0.000000 -1.000000
vn -0.766044 -0.000000 -0.642788
vn -0.766044 0.000000 -0.642788
vn 1.000000 0.000000 -0.000000
vn 1.000000 0.000000 0.000000
vn 0.766044 0.000000 0.642788
vn 0.766044 0.000000 0.642788
vn 0.000000 0.000000 1.000000
vn 0.000000 0.000000 1.000000
vn -0.766044 0.000000 0.642788
vn -0.766044 0.000000 0.642788
vn 0.642788 0.000000 0.766044
vn 0.642788 0.000000 0.766044
vn 0.766044 0.000000 -0.642788
vn 0.766044 0.000000 -0.642788
vn 1.000000 0.000000 -0.000000
vn 1.000000 0.000000 0.000000
vn 0.766044 0.000000 0.642788
vn 0.766044 0.000000 0.642788
vn 0.642787 0.000000 -0.766045
vn 0.642787 0.000000 -0.766045
vn -0.766044 0.000000 -0.642788
vn -0.766044 -0.000000 -0.642788
vn 0.000000 1.000000 0.000000
vn 0.000000 1.000000 0.000000
vn 0.000000 1.000000 0.000000
vn 0.000000 1.000000 0.000000
vn 0.000000 1.000000 0.000000
vn 0.000000 1.000000 0.000000
vn 0.000000 1.000000 0.000000
vn 0.000000 1.000000 0.000000
vn 0.000000 1.000000 0.000000
vn 0.000000 1.000000 0.000000
vn 0.000000 1.000000 0.000000
vn 0.000000 1.000000 0.000000
vn 0.000000 1.000000 0.000000
vn 0.000000 1.000000 0.000000
vn 0.000000 1.000000 0.000000
vn 0.000000 1.000000 0.000000
vn 0.000000 1.000000 0.000000
vn 0.000000 1.000000 0.000000
vn 0.000000 1.000000 0.000000
vn 0.000000 1.000000 0.000000
vn 0.000000 1.000000 0.000000
vn 0.000000 1.000000 -0.000000
vn 0.000000 -1.000000 0.000000
vn 0.000000 -1.000000 0.000000
vn 0.000000 -1.000000 0.000000
vn 0.000000 -1.000000 0.000000
vn 0.000000 -1.000000 0.000000
vn 0.000000 -1.000000 0.000000
vn 0.000000 -1.000000 0.000000
vn 0.000000 -1.000000 0.000000
vn 0.000000 -1.000000 0.000000
vn 0.000000 -1.000000 0.000000
vn -0.000000 -1.000000 0.000000
vn 0.000000 -1.000000 0.000000
vn 0.000000 -1.000000 0.000000
vn 0.000000 -1.000000 0.000000
vn 0.000000 -1.000000 0.000000
vn -0.000000 -1.000000 0.000000
vn 0.000000 -1.000000 0.000000
vn 0.000000 -1.000000 0.000000
vn 0.000000 -1.000000 -0.000000
vn 0.000000 -1.000000 0.000000
vn 0.000000 -1.000000 0.000000
vn 0.000000 -1.000000 0.000000
vn -1.000000 0.000000 -0.000000
vn -1.000000 -0.000000 0.000000
vn 0.766044 0.000000 0.642788
vn 0.766044 0.000000 0.642788
vn 0.000000 0.000000 1.000000
vn 0.000000 0.000000 1.000000
vn -0.766044 0.000000 0.642788
vn -0.766044 0.000000 0.642788
vn 0.660073 0.000000 0.751202
vn 0.660073 0.000000 0.751202
vn 0.766045 0.000000 -0.642787
vn 0.766045 0.000000 -0.642787
vn 1.000000 0.000000 -0.000000
vn 1.000000 0.000000 0.000000
vn 0.766045 0.000000 0.642787
vn 0.766045 0.000000 0.642787
vn 0.660073 0.000000 -0.751202
vn 0.660073 0.000000 -0.751202
vn -0.766044 0.000000 -0.642788
vn -0.766044 -0.000000 -0.642788
vn 0.000000 0.000000 -1.000000
vn 0.000000 0.000000 -1.000000
vn 0.766044 0.000000 -0.642788
vn 0.766044 0.000000 -0.642788
vn -1.000000 0.000000 -0.000000
vn -1.000000 -0.000000 0.000000
vn -0.766044 0.000000 0.642788
vn -0.766044 0.000000 0.642788
vn 0.000000 0.000000 1.000000
vn 0.000000 0.000000 1.000000
vn 0.766044 0.000000 0.642788
vn 0.766044 0.000000 0.642788
vn -0.642788 0.000000 0.766044
vn -0.642788 0.000000 0.766044
vn -0.766045 -0.000000 -0.642787
vn -0.766045 0.000000 -0.642787
vn -1.000000 -0.000000 -0.000000
vn -1.000000 0.000000 0.000000
vn -0.766045 0.000000 0.642787
vn -0.766045 0.000000 0.642787
vn -0.642787 -0.000000 -0.766045
vn -0.642787 0.000000 -0.766045
vn 0.766044 0.000000 -0.642788
vn 0.766044 0.000000 -0.642788
vn 0.000000 0.000000 -1.000000
vn 0.000000 0.000000 -1.000000
vn -0.766044 -0.000000 -0.642788
vn -0.766044 0.000000 -0.642788
vn 0.000000 1.000000 0.000000
vn 0.000000 1.000000 0.000000
vn 0.000000 1.000000 0.000000
vn 0.000000 1.000000 0.000000
vn 0.000000 1.000000 0.000000
vn 0.000000 1.000000 0.000000
vn 0.000000 1.000000 0.000000
vn 0.000000 1.000000 0.000000
vn 0.000000 1.000000 0.000000
vn 0.000000 1.000000 0.000000
vn 0.000000 1.000000 0.000000
vn 0.000000 1.000000 0.000000
vn 0.000000 1.000000 0.000000
vn 0.000000 1.000000 0.000000
vn 0.000000 1.000000 0.000000
vn 0.000000 1.000000 0.000000
vn 0.000000 1.000000 0.000000
vn 0.000000 1.000000 -0.000000
vn 0.000000 1.000000 0.000000
vn 0.000000 1.000000 0.000000
vn 0.000000 1.000000 0.000000
vn 0.000000 1.000000 0.000000
vn 0.000000 -1.000000 0.000000
vn -0.000000 -1.000000 0.000000
vn 0.000000 -1.000000 0.000000
vn 0.000000 -1.000000 0.000000
vn 0.000000 -1.000000 0.000000
vn 0.000000 -1.000000 0.000000
vn 0.000000 -1.000000 0.000000
vn 0.000000 -1.000000 0.000000
vn 0.000000 -1.000000 0.000000
vn 0.000000 -1.000000 0.000000
vn 0.000000 -1.000000 0.000000
vn 0.000000 -1.000000 0.000000
vn 0.000000 -1.000000 0.000000
vn 0.000000 -1.000000 0.000000
vn 0.000000 -1.000000 0.000000
vn 0.000000 -1.000000 0.000000
vn 0.000000 -1.000000 -0.000000
vn 0.000000 -1.000000 0.000000
vn 0.000000 -1.000000 0.000000
vn 0.000000 -1.000000 0.000000
vn 0.000000 -1.000000 0.000000
vn 0.000000 -1.000000 0.000000
g Extrude
f 1//1 2//1 3//1
f 1//2 3//2 4//2
f 2//3 5//3 3//3
f 2//4 6//4 5//4
f 6//5 7//5 5//5
f 5//6 7//6 8//6
f 7//7 9//7 8//7
f 8//8 9//8 10//8
f 9//9 11//9 10//9
f 10//10 11//10 12//10
f 11//11 13//11 12//11
f 12//12 13//12 14//12
f 13//13 15//13 14//13
f 14//14 15//14 16//14
f 15//15 17//15 18//15
f 15//16 18//16 16//16
f 17//17 19//17 20//17
f 17//18 20//18 18//18
f 19//19 21//19 20//19
f 20//20 21//20 22//20
f 21//21 23//21 22//21
f 22//22 23//22 24//22
f 23//23 25//23 26//23
f 23//24 26//24 24//24
f 25//25 27//25 28//25
f 25//26 28//26 26//26
f 27//27 29//27 30//27
f 27//28 30//28 28//28
f 29//29 31//29 32//29
f 29//30 32//30 30//30
f 31//31 33//31 32//31
f 32//32 33//32 34//32
f 33//33 35//33 34//33
f 33//34 36//34 35//34
f 36//35 37//35 38//35
f 36//36 38//36 35//36
f 37//37 39//37 38//37
f 37//38 40//38 39//38
f 40//39 41//39 42//39
f 40//40 42//40 39//40
f 41//41 43//41 44//41
f 41//42 44//42 42//42
f 43//43 45//43 44//43
f 44//44 45//44 46//44
f 46//45 47//45 48//45
f 45//46 47//46 46//46
f 47//47 1//47 4//47
f 47//48 4//48 48//48
f 41//49 45//49 43//49
f 47//50 41//50 40//50
f 47//51 45//51 41//51
f 33//52 47//52 40//52
f 36//53 40//53 37//53
f 36//54 33//54 40//54
f 31//55 1//55 47//55
f 31//56 47//56 33//56
f 29//57 2//57 1//57
f 29//58 1//58 31//58
f 6//59 2//59 29//59
f 25//60 7//60 6//60
f 27//61 6//61 29//61
f 27//62 25//62 6//62
f 23//63 9//63 7//63
f 23//64 7//64 25//64
f 15//65 11//65 9//65
f 15//66 13//66 11//66
f 17//67 15//67 9//67
f 17//68 9//68 23//68
f 21//69 17//69 23//69
f 19//70 17//70 21//70
f 46//71 42//71 44//71
f 42//72 48//72 39//72
f 46//73 48//73 42//73
f 48//74 34//74 39//74
f 39//75 35//75 38//75
f 34//76 35//76 39//76
f 4//77 32//77 48//77
f 48//78 32//78 34//78
f 3//79 30//79 4//79
f 4//80 30//80 32//80
f 3//81 5//81 30//81
f 8//82 26//82 5//82
f 5//83 28//83 30//83
f 26//84 28//84 5//84
f 10//85 24//85 8//85
f 8//86 24//86 26//86
f 12//87 16//87 10//87
f 14//88 16//88 12//88
f 16//89 18//89 10//89
f 10//90 18//90 24//90
f 18//91 22//91 24//91
f 18//92 20//92 22//92
g Extrude001
f 49//93 50//93 51//93
f 51//94 50//94 52//94
f 50//95 53//95 54//95
f 50//96 54//96 52//96
f 53//97 55//97 56//97
f 53//98 56//98 54//98
f 55//99 57//99 56//99
f 56//100 57//100 58//100
f 57//101 59//101 58//101
f 58//102 59//102 60//102
f 59//103 61//103 60//103
f 60//104 61//104 62//104
f 61//105 63//105 62//105
f 62//106 63//106 64//106
f 63//107 65//107 64//107
f 64//108 65//108 66//108
f 65//109 67//109 66//109
f 66//110 67//110 68//110
f 67//111 69//111 68//111
f 67//112 70//112 69//112
f 70//113 71//113 69//113
f 69//114 71//114 72//114
f 71//115 73//115 72//115
f 71//116 74//116 73//116
f 74//117 75//117 73//117
f 73//118 75//118 76//118
f 75//119 77//119 76//119
f 76//120 77//120 78//120
f 77//121 79//121 78//121
f 78//122 79//122 80//122
f 79//123 81//123 82//123
f 79//124 82//124 80//124
f 81//125 83//125 84//125
f 81//126 84//126 82//126
f 83//127 85//127 86//127
f 83//128 86//128 84//128
f 85//129 87//129 86//129
f 86//130 87//130 88//130
f 88//131 89//131 90//131
f 87//132 89//132 88//132
f 89//133 91//133 92//133
f 89//134 92//134 90//134
f 91//135 93//135 94//135
f 91//136 94//136 92//136
f 93//137 95//137 96//137
f 93//138 96//138 94//138
f 96//139 49//139 51//139
f 95//140 49//140 96//140
f 87//141 71//141 70//141
f 85//142 71//142 87//142
f 67//143 87//143 70//143
f 91//144 67//144 65//144
f 91//145 89//145 67//145
f 93//146 65//146 63//146
f 79//147 77//147 75//147
f 81//148 75//148 74//148
f 81//149 74//149 83//149
f 81//150 79//150 75//150
f 61//151 95//151 93//151
f 61//152 93//152 63//152
f 57//153 50//153 49//153
f 57//154 49//154 59//154
f 53//155 50//155 57//155
f 55//156 53//156 57//156
f 61//157 59//157 95//157
f 74//158 71//158 85//158
f 85//159 83//159 74//159
f 89//160 87//160 67//160
f 93//161 91//161 65//161
f 49//162 95//162 59//162
f 72//163 88//163 69//163
f 72//164 86//164 88//164
f 88//165 68//165 69//165
f 68//166 92//166 66//166
f 90//167 92//167 68//167
f 66//168 94//168 64//168
f 78//169 80//169 76//169
f 76//170 82//170 73//170
f 73//171 82//171 84//171
f 80//172 82//172 76//172
f 96//173 62//173 94//173
f 94//174 62//174 64//174
f 52//175 58//175 51//175
f 51//176 58//176 60//176
f 52//177 54//177 58//177
f 54//178 56//178 58//178
f 60//179 62//179 96//179
f 72//180 73//180 86//180
f 84//181 86//181 73//181
f 88//182 90//182 68//182
f 92//183 94//183 66//183
f 96//184 51//184 60//184
g Extrude002
f 97//185 98//185 99//185
f 97//186 99//186 100//186
f 101//187 97//187 100//187
f 101//188 100//188 102//188
f 103//189 101//189 102//189
f 103//190 102//190 104//190
f 105//191 103//191 104//191
f 106//192 103//192 105//192
f 107//193 106//193 105//193
f 107//194 105//194 108//194
f 109//195 107//195 108//195
f 109//196 108//196 110//196
f 111//197 109//197 110//197
f 111//198 110//198 112//198
f 113//199 111//199 112//199
f 113//200 112//200 114//200
f 115//201 113//201 114//201
f 115//202 114//202 116//202
f 117//203 115//203 116//203
f 117//204 116//204 118//204
f 119//205 117//205 118//205
f 119//206 118//206 120//206
f 121//207 119//207 120//207
f 121//208 120//208 122//208
f 123//209 121//209 122//209
f 123//210 122//210 124//210
f 125//211 123//211 126//211
f 126//212 123//212 124//212
f 127//213 125//213 128//213
f 128//214 125//214 126//214
f 129//215 127//215 130//215
f 130//216 127//216 128//216
f 131//217 129//217 132//217
f 132//218 129//218 130//218
f 133//219 131//219 134//219
f 134//220 131//220 132//220
f 135//221 133//221 136//221
f 136//222 133//222 134//222
f 137//223 135//223 138//223
f 138//224 135//224 136//224
f 139//225 137//225 140//225
f 140//226 137//226 138//226
f 141//227 139//227 142//227
f 142//228 139//228 140//228
f 143//229 141//229 144//229
f 144//230 141//230 142//230
f 98//231 143//231 99//231
f 99//232 143//232 144//232
f 119//233 121//233 123//233
f 125//234 119//234 123//234
f 101//235 143//235 98//235
f 97//236 101//236 98//236
f 127//237 117//237 119//237
f 127//238 119//238 125//238
f 103//239 141//239 143//239
f 103//240 143//240 101//240
f 131//241 115//241 129//241
f 113//242 115//242 131//242
f 111//243 113//243 131//243
f 109//244 133//244 135//244
f 109//245 111//245 133//245
f 106//246 137//246 139//246
f 107//247 137//247 106//247
f 107//248 109//248 137//248
f 103//249 106//249 139//249
f 115//250 117//250 129//250
f 127//251 129//251 117//251
f 131//252 133//252 111//252
f 135//253 137//253 109//253
f 139//254 141//254 103//254
f 122//255 120//255 124//255
f 120//256 126//256 124//256
f 144//257 102//257 99//257
f 102//258 100//258 99//258
f 118//259 128//259 120//259
f 120//260 128//260 126//260
f 142//261 104//261 144//261
f 144//262 104//262 102//262
f 116//263 132//263 130//263
f 116//264 114//264 132//264
f 114//265 112//265 132//265
f 134//266 110//266 136//266
f 112//267 110//267 134//267
f 138//268 105//268 140//268
f 138//269 108//269 105//269
f 110//270 108//270 138//270
f 105//271 104//271 140//271
f 118//272 116//272 130//272
f 130//273 128//273 118//273
f 134//274 132//274 112//274
f 138//275 136//275 110//275
f 142//276 140//276 104//276
