# Created by FreeCAD <http://www.freecadweb.org>
v -3.356399 0.000000 4.000000
v 0.000000 0.000000 0.000000
v 0.000000 -1.000000 0.000000
v -3.356399 -1.000000 4.000000
v 111.537201 0.000000 0.000000
v 111.537201 -1.000000 0.000000
v 114.893600 0.000000 4.000000
v 114.893600 -1.000000 4.000000
v 116.643600 0.000000 4.000000
v 116.643600 -1.000000 4.000000
v 130.784927 -0.000000 -12.852978
v 130.784927 -1.000000 -12.852978
v 133.849106 -0.000000 -10.281827
v 133.849106 -1.000000 -10.281827
v 121.865234 0.000000 4.000000
v 121.865234 -1.000000 4.000000
v 121.865234 0.000000 6.000000
v 121.865234 -1.000000 6.000000
v 133.849106 0.000000 20.281828
v 133.849106 -1.000000 20.281828
v 130.784927 0.000000 22.852978
v 130.784927 -1.000000 22.852978
v 116.643600 0.000000 6.000000
v 116.643600 -1.000000 6.000000
v 114.893600 0.000000 6.000000
v 114.893600 -1.000000 6.000000
v 111.537201 0.000000 10.000000
v 111.537201 -1.000000 10.000000
v 0.000000 0.000000 10.000000
v 0.000000 -1.000000 10.000000
v -3.356399 0.000000 6.000000
v -3.356399 -1.000000 6.000000
v -5.106399 0.000000 6.000000
v -5.106399 -1.000000 6.000000
v -19.247726 0.000000 22.852978
v -19.247726 -1.000000 22.852978
v -22.311903 0.000000 20.281828
v -22.311903 -1.000000 20.281828
v -10.328028 0.000000 6.000000
v -10.328028 -1.000000 6.000000
v -10.328028 0.000000 4.000000
v -10.328028 -1.000000 4.000000
v -22.311903 -0.000000 -10.281827
v -22.311903 -1.000000 -10.281827
v -19.247726 -0.000000 -12.852978
v -19.247726 -1.000000 -12.852978
v -5.106399 0.000000 4.000000
v -5.106399 -1.000000 4.000000
v -3.356399 -1.000000 6.000000
v 0.000000 -1.000000 10.000000
v 0.000000 -3.000000 10.000000
v -3.356399 -3.000000 6.000000
v -5.106399 -1.000000 6.000000
v -5.106399 -3.000000 6.000000
v -19.247726 -1.000000 22.852978
v -19.247726 -3.000000 22.852978
v -22.311903 -1.000000 20.281828
v -22.311903 -3.000000 20.281828
v -10.328028 -1.000000 6.000000
v -10.328028 -3.000000 6.000000
v -10.328028 -1.000000 4.000000
v -10.328028 -3.000000 4.000000
v -22.311903 -3.000000 -10.281827
v -22.311903 -1.000000 -10.281827
v -19.247726 -1.000000 -12.852978
v -19.247726 -3.000000 -12.852978
v -5.106399 -1.000000 4.000000
v -5.106399 -3.000000 4.000000
v -3.356399 -1.000000 4.000000
v -3.356399 -3.000000 4.000000
v 0.000000 -1.000000 0.000000
v 0.000000 -3.000000 0.000000
v 0.000000 -1.000000 -1.500000
v 0.000000 -3.000000 -1.500000
v -0.699461 -1.000000 -1.500000
v -0.699461 -3.000000 -1.500000
v -4.055860 -1.000000 2.500000
v -4.055860 -3.000000 2.500000
v -4.406937 -1.000000 2.500000
v -4.406937 -3.000000 2.500000
v -19.062841 -1.000000 -14.966226
v -19.062841 -3.000000 -14.966226
v -24.425152 -1.000000 -10.466713
v -24.425152 -3.000000 -10.466713
v -11.828028 -1.000000 4.545955
v -11.828028 -3.000000 4.545955
v -11.828028 -1.000000 5.454045
v -11.828028 -3.000000 5.454045
v -24.425152 -3.000000 20.466713
v -24.425152 -1.000000 20.466713
v -19.062841 -1.000000 24.966227
v -19.062841 -3.000000 24.966227
v -4.406937 -3.000000 7.500000
v -4.406937 -1.000000 7.500000
v -4.055860 -1.000000 7.500000
v -4.055860 -3.000000 7.500000
v -0.699461 -1.000000 11.500000
v -0.699461 -3.000000 11.500000
v 0.000000 -1.000000 11.500000
v 0.000000 -3.000000 11.500000
v 111.537201 -1.000000 11.500000
v 111.537201 -1.000000 10.000000
v 111.537201 -3.000000 10.000000
v 111.537201 -3.000000 11.500000
v 112.236664 -1.000000 11.500000
v 112.236664 -3.000000 11.500000
v 115.593063 -1.000000 7.500000
v 115.593063 -3.000000 7.500000
v 115.944138 -1.000000 7.500000
v 115.944138 -3.000000 7.500000
v 130.600037 -1.000000 24.966227
v 130.600037 -3.000000 24.966227
v 135.962357 -1.000000 20.466713
v 135.962357 -3.000000 20.466713
v 123.365234 -1.000000 5.454045
v 123.365234 -3.000000 5.454045
v 123.365234 -1.000000 4.545955
v 123.365234 -3.000000 4.545955
v 135.962357 -1.000000 -10.466713
v 135.962357 -3.000000 -10.466713
v 130.600037 -1.000000 -14.966226
v 130.600037 -3.000000 -14.966226
v 115.944138 -1.000000 2.500000
v 115.944138 -3.000000 2.500000
v 115.593063 -1.000000 2.500000
v 115.593063 -3.000000 2.500000
v 112.236664 -1.000000 -1.500000
v 112.236664 -3.000000 -1.500000
v 111.537201 -1.000000 -1.500000
v 111.537201 -3.000000 -1.500000
v 111.537201 -1.000000 -0.000000
v 111.537201 -3.000000 0.000000
v 114.893600 -1.000000 4.000000
v 114.893600 -3.000000 4.000000
v 116.643600 -1.000000 4.000000
v 116.643600 -3.000000 4.000000
v 130.784927 -1.000000 -12.852978
v 130.784927 -3.000000 -12.852978
v 133.849106 -1.000000 -10.281827
v 133.849106 -3.000000 -10.281827
v 121.865234 -1.000000 4.000000
v 121.865234 -3.000000 4.000000
v 121.865234 -1.000000 6.000000
v 121.865234 -3.000000 6.000000
v 133.849106 -1.000000 20.281828
v 133.849106 -3.000000 20.281828
v 130.784927 -1.000000 22.852978
v 130.784927 -3.000000 22.852978
v 116.643600 -1.000000 6.000000
v 116.643600 -3.000000 6.000000
v 114.893600 -1.000000 6.000000
v 114.893600 -3.000000 6.000000
vn -0.766044 0.000000 -0.642788
vn -0.766044 -0.000000 -0.642788
vn 0.000000 0.000000 -1.000000
vn 0.000000 0.000000 -1.000000
vn 0.766044 0.000000 -0.642788
vn 0.766044 0.000000 -0.642788
vn 0.000000 0.000000 -1.000000
vn 0.000000 0.000000 -1.000000
vn -0.766044 -0.000000 -0.642788
vn -0.766044 0.000000 -0.642788
vn 0.642788 0.000000 -0.766044
vn 0.642788 0.000000 -0.766044
vn 0.766045 0.000000 0.642787
vn 0.766045 0.000000 0.642787
vn 1.000000 0.000000 -0.000000
vn 1.000000 0.000000 0.000000
vn 0.766045 0.000000 -0.642787
vn 0.766045 0.000000 -0.642787
vn 0.642787 0.000000 0.766045
vn 0.642787 0.000000 0.766045
vn -0.766044 0.000000 0.642788
vn -0.766044 0.000000 0.642788
vn 0.000000 0.000000 1.000000
vn 0.000000 0.000000 1.000000
vn 0.766044 0.000000 0.642788
vn 0.766044 0.000000 0.642788
vn 0.000000 0.000000 1.000000
vn 0.000000 0.000000 1.000000
vn -0.766044 0.000000 0.642788
vn -0.766044 0.000000 0.642788
vn 0.000000 0.000000 1.000000
vn 0.000000 0.000000 1.000000
vn 0.766044 0.000000 0.642788
vn 0.766044 0.000000 0.642788
vn -0.642788 0.000000 0.766044
vn -0.642788 0.000000 0.766044
vn -0.766044 -0.000000 -0.642788
vn -0.766044 0.000000 -0.642788
vn -1.000000 0.000000 -0.000000
vn -1.000000 -0.000000 0.000000
vn -0.766044 0.000000 0.642788
vn -0.766044 0.000000 0.642788
vn -0.642788 -0.000000 -0.766044
vn -0.642788 0.000000 -0.766044
vn 0.766044 0.000000 -0.642788
vn 0.766044 0.000000 -0.642788
vn 0.000000 0.000000 -1.000000
vn 0.000000 0.000000 -1.000000
vn 0.000000 1.000000 -0.000000
vn 0.000000 1.000000 0.000000
vn 0.000000 1.000000 0.000000
vn 0.000000 1.000000 0.000000
vn 0.000000 1.000000 0.000000
vn 0.000000 1.000000 -0.000000
vn 0.000000 1.000000 -0.000000
vn -0.000000 1.000000 0.000000
vn 0.000000 1.000000 -0.000000
vn -0.000000 1.000000 -0.000000
vn 0.000000 1.000000 -0.000000
vn 0.000000 1.000000 0.000000
vn 0.000000 1.000000 0.000000
vn 0.000000 1.000000 0.000000
vn -0.000000 1.000000 -0.000000
vn 0.000000 1.000000 0.000000
vn 0.000000 1.000000 0.000000
vn -0.000000 1.000000 -0.000000
vn 0.000000 1.000000 -0.000000
vn 0.000000 1.000000 -0.000000
vn 0.000000 1.000000 -0.000000
vn 0.000000 1.000000 -0.000000
vn 0.000000 -1.000000 0.000000
vn 0.000000 -1.000000 0.000000
vn 0.000000 -1.000000 0.000000
vn 0.000000 -1.000000 0.000000
vn 0.000000 -1.000000 0.000000
vn 0.000000 -1.000000 0.000000
vn 0.000000 -1.000000 0.000000
vn 0.000000 -1.000000 0.000000
vn 0.000000 -1.000000 0.000000
vn -0.000000 -1.000000 0.000000
vn 0.000000 -1.000000 0.000000
vn -0.000000 -1.000000 -0.000000
vn 0.000000 -1.000000 0.000000
vn 0.000000 -1.000000 0.000000
vn -0.000000 -1.000000 0.000000
vn 0.000000 -1.000000 0.000000
vn 0.000000 -1.000000 0.000000
vn 0.000000 -1.000000 0.000000
vn 0.000000 -1.000000 0.000000
vn 0.000000 -1.000000 0.000000
vn 0.000000 -1.000000 0.000000
vn 0.000000 -1.000000 0.000000
vn 0.766044 0.000000 -0.642788
vn 0.766044 0.000000 -0.642788
vn 0.000000 0.000000 -1.000000
vn 0.000000 0.000000 -1.000000
vn -0.766044 0.000000 -0.642788
vn -0.766044 -0.000000 -0.642788
vn 0.642788 0.000000 -0.766044
vn 0.642788 0.000000 -0.766044
vn 0.766044 0.000000 0.642788
vn 0.766044 0.000000 0.642788
vn 1.000000 0.000000 -0.000000
vn 1.000000 0.000000 0.000000
vn 0.766044 0.000000 -0.642788
vn 0.766044 0.000000 -0.642788
vn 0.642788 0.000000 0.766044
vn 0.642788 0.000000 0.766044
vn -0.766044 0.000000 0.642788
vn -0.766044 0.000000 0.642788
vn 0.000000 0.000000 1.000000
vn 0.000000 0.000000 1.000000
vn 0.766044 0.000000 0.642788
vn 0.766044 0.000000 0.642788
vn 1.000000 0.000000 -0.000000
vn 1.000000 0.000000 0.000000
vn 0.000000 0.000000 -1.000000
vn 0.000000 0.000000 -1.000000
vn -0.766044 0.000000 -0.642788
vn -0.766044 -0.000000 -0.642788
vn 0.000000 0.000000 -1.000000
vn 0.000000 0.000000 -1.000000
vn 0.766044 0.000000 -0.642788
vn 0.766044 0.000000 -0.642788
vn -0.642788 0.000000 -0.766044
vn -0.642788 -0.000000 -0.766044
vn -0.766044 0.000000 0.642788
vn -0.766044 0.000000 0.642788
vn -1.000000 0.000000 -0.000000
vn -1.000000 -0.000000 0.000000
vn -0.766044 0.000000 -0.642788
vn -0.766044 -0.000000 -0.642788
vn -0.642788 0.000000 0.766044
vn -0.642788 0.000000 0.766044
vn 0.766044 0.000000 0.642788
vn 0.766044 0.000000 0.642788
vn 0.000000 0.000000 1.000000
vn 0.000000 0.000000 1.000000
vn -0.766044 0.000000 0.642788
vn -0.766044 0.000000 0.642788
vn 0.000000 0.000000 1.000000
vn 0.000000 0.000000 1.000000
vn 1.000000 0.000000 0.000000
vn 1.000000 0.000000 0.000000
vn 0.000000 1.000000 0.000000
vn 0.000000 1.000000 0.000000
vn 0.000000 1.000000 0.000000
vn 0.000000 1.000000 0.000000
vn 0.000000 1.000000 0.000000
vn 0.000000 1.000000 0.000000
vn 0.000000 1.000000 0.000000
vn 0.000000 1.000000 0.000000
vn 0.000000 1.000000 0.000000
vn 0.000000 1.000000 0.000000
vn 0.000000 1.000000 0.000000
vn 0.000000 1.000000 0.000000
vn 0.000000 1.000000 0.000000
vn 0.000000 1.000000 0.000000
vn 0.000000 1.000000 0.000000
vn 0.000000 1.000000 0.000000
vn 0.000000 1.000000 0.000000
vn 0.000000 1.000000 0.000000
vn 0.000000 1.000000 -0.000000
vn 0.000000 1.000000 0.000000
vn 0.000000 1.000000 0.000000
vn -0.000000 1.000000 0.000000
vn 0.000000 1.000000 0.000000
vn 0.000000 1.000000 0.000000
vn 0.000000 -1.000000 0.000000
vn 0.000000 -1.000000 0.000000
vn -0.000000 -1.000000 0.000000
vn 0.000000 -1.000000 0.000000
vn 0.000000 -1.000000 0.000000
vn 0.000000 -1.000000 0.000000
vn 0.000000 -1.000000 0.000000
vn 0.000000 -1.000000 0.000000
vn 0.000000 -1.000000 0.000000
vn 0.000000 -1.000000 0.000000
vn 0.000000 -1.000000 0.000000
vn 0.000000 -1.000000 0.000000
vn 0.000000 -1.000000 0.000000
vn 0.000000 -1.000000 0.000000
vn -0.000000 -1.000000 0.000000
vn 0.000000 -1.000000 0.000000
vn -0.000000 -1.000000 0.000000
vn 0.000000 -1.000000 0.000000
vn 0.000000 -1.000000 0.000000
vn -0.000000 -1.000000 0.000000
vn 0.000000 -1.000000 0.000000
vn 0.000000 -1.000000 0.000000
vn 0.000000 -1.000000 -0.000000
vn 0.000000 -1.000000 0.000000
vn -1.000000 0.000000 -0.000000
vn -1.000000 -0.000000 0.000000
vn 0.000000 0.000000 1.000000
vn 0.000000 0.000000 1.000000
vn 0.766044 0.000000 0.642788
vn 0.766044 0.000000 0.642788
vn 0.000000 0.000000 1.000000
vn 0.000000 0.000000 1.000000
vn -0.766045 0.000000 0.642788
vn -0.766045 0.000000 0.642788
vn 0.642787 0.000000 0.766045
vn 0.642787 0.000000 0.766045
vn 0.766045 0.000000 -0.642788
vn 0.766045 0.000000 -0.642788
vn 1.000000 0.000000 -0.000000
vn 1.000000 0.000000 0.000000
vn 0.766045 0.000000 0.642788
vn 0.766045 0.000000 0.642788
vn 0.642787 0.000000 -0.766045
vn 0.642787 0.000000 -0.766045
vn -0.766044 0.000000 -0.642788
vn -0.766044 -0.000000 -0.642788
vn 0.000000 0.000000 -1.000000
vn 0.000000 0.000000 -1.000000
vn 0.766044 0.000000 -0.642788
vn 0.766044 0.000000 -0.642788
vn 0.000000 0.000000 -1.000000
vn 0.000000 0.000000 -1.000000
vn -1.000000 -0.000000 -0.000000
vn -1.000000 0.000000 0.000000
vn -0.766044 0.000000 0.642788
vn -0.766044 0.000000 0.642788
vn 0.000000 0.000000 1.000000
vn 0.000000 0.000000 1.000000
vn 0.766044 0.000000 0.642788
vn 0.766044 0.000000 0.642788
vn -0.642788 0.000000 0.766044
vn -0.642788 0.000000 0.766044
vn -0.766045 -0.000000 -0.642787
vn -0.766045 0.000000 -0.642787
vn -1.000000 -0.000000 -0.000000
vn -1.000000 0.000000 0.000000
vn -0.766045 0.000000 0.642787
vn -0.766045 0.000000 0.642787
vn -0.642787 -0.000000 -0.766045
vn -0.642787 0.000000 -0.766045
vn 0.766044 0.000000 -0.642788
vn 0.766044 0.000000 -0.642788
vn 0.000000 0.000000 -1.000000
vn 0.000000 0.000000 -1.000000
vn -0.766044 -0.000000 -0.642788
vn -0.766044 0.000000 -0.642788
vn 0.000000 1.000000 0.000000
vn 0.000000 1.000000 0.000000
vn 0.000000 1.000000 0.000000
vn 0.000000 1.000000 0.000000
vn 0.000000 1.000000 0.000000
vn 0.000000 1.000000 0.000000
vn 0.000000 1.000000 0.000000
vn 0.000000 1.000000 0.000000
vn 0.000000 1.000000 0.000000
vn 0.000000 1.000000 0.000000
vn 0.000000 1.000000 0.000000
vn 0.000000 1.000000 0.000000
vn 0.000000 1.000000 0.000000
vn 0.000000 1.000000 0.000000
vn 0.000000 1.000000 0.000000
vn 0.000000 1.000000 0.000000
vn 0.000000 1.000000 0.000000
vn 0.000000 1.000000 0.000000
vn 0.000000 1.000000 0.000000
vn -0.000000 1.000000 0.000000
vn 0.000000 1.000000 -0.000000
vn 0.000000 1.000000 0.000000
vn 0.000000 1.000000 0.000000
vn -0.000000 1.000000 0.000000
vn 0.000000 -1.000000 0.000000
vn 0.000000 -1.000000 0.000000
vn 0.000000 -1.000000 0.000000
vn -0.000000 -1.000000 0.000000
vn 0.000000 -1.000000 0.000000
vn 0.000000 -1.000000 0.000000
vn 0.000000 -1.000000 0.000000
vn 0.000000 -1.000000 0.000000
vn 0.000000 -1.000000 0.000000
vn 0.000000 -1.000000 0.000000
vn 0.000000 -1.000000 0.000000
vn 0.000000 -1.000000 0.000000
vn 0.000000 -1.000000 0.000000
vn 0.000000 -1.000000 0.000000
vn 0.000000 -1.000000 0.000000
vn 0.000000 -1.000000 0.000000
vn 0.000000 -1.000000 0.000000
vn 0.000000 -1.000000 0.000000
vn 0.000000 -1.000000 -0.000000
vn 0.000000 -1.000000 0.000000
vn 0.000000 -1.000000 0.000000
vn 0.000000 -1.000000 0.000000
vn 0.000000 -1.000000 0.000000
vn 0.000000 -1.000000 0.000000
g Extrude
f 1//1 2//1 3//1
f 1//2 3//2 4//2
f 2//3 5//3 3//3
f 3//4 5//4 6//4
f 5//5 7//5 6//5
f 6//6 7//6 8//6
f 7//7 9//7 8//7
f 8//8 9//8 10//8
f 9//9 11//9 10//9
f 10//10 11//10 12//10
f 11//11 13//11 12//11
f 12//12 13//12 14//12
f 13//13 15//13 14//13
f 14//14 15//14 16//14
f 15//15 17//15 18//15
f 15//16 18//16 16//16
f 17//17 19//17 20//17
f 17//18 20//18 18//18
f 19//19 21//19 20//19
f 20//20 21//20 22//20
f 21//21 23//21 22//21
f 22//22 23//22 24//22
f 23//23 25//23 26//23
f 23//24 26//24 24//24
f 25//25 27//25 28//25
f 25//26 28//26 26//26
f 27//27 29//27 30//27
f 27//28 30//28 28//28
f 29//29 31//29 32//29
f 29//30 32//30 30//30
f 31//31 33//31 32//31
f 32//32 33//32 34//32
f 33//33 35//33 34//33
f 34//34 35//34 36//34
f 35//35 37//35 38//35
f 35//36 38//36 36//36
f 37//37 39//37 38//37
f 38//38 39//38 40//38
f 39//39 41//39 42//39
f 39//40 42//40 40//40
f 41//41 43//41 44//41
f 41//42 44//42 42//42
f 43//43 45//43 44//43
f 44//44 45//44 46//44
f 45//45 47//45 48//45
f 45//46 48//46 46//46
f 47//47 1//47 4//47
f 47//48 4//48 48//48
f 41//49 45//49 43//49
f 47//50 41//50 39//50
f 33//51 1//51 47//51
f 33//52 47//52 39//52
f 31//53 1//53 33//53
f 35//54 39//54 37//54
f 29//55 2//55 1//55
f 29//56 1//56 31//56
f 27//57 5//57 2//57
f 27//58 7//58 5//58
f 27//59 2//59 29//59
f 27//60 25//60 7//60
f 23//61 9//61 7//61
f 23//62 7//62 25//62
f 15//63 13//63 11//63
f 17//64 9//64 23//64
f 17//65 15//65 9//65
f 19//66 17//66 21//66
f 11//67 9//67 15//67
f 23//68 21//68 17//68
f 35//69 33//69 39//69
f 47//70 45//70 41//70
f 46//71 42//71 44//71
f 42//72 48//72 40//72
f 4//73 34//73 48//73
f 48//74 34//74 40//74
f 4//75 32//75 34//75
f 40//76 36//76 38//76
f 3//77 30//77 4//77
f 4//78 30//78 32//78
f 6//79 28//79 3//79
f 8//80 28//80 6//80
f 3//81 28//81 30//81
f 26//82 28//82 8//82
f 10//83 24//83 8//83
f 8//84 24//84 26//84
f 14//85 16//85 12//85
f 10//86 18//86 24//86
f 16//87 18//87 10//87
f 18//88 20//88 22//88
f 10//89 12//89 16//89
f 22//90 24//90 18//90
f 34//91 36//91 40//91
f 46//92 48//92 42//92
g Extrude001
f 49//93 50//93 51//93
f 49//94 51//94 52//94
f 53//95 49//95 52//95
f 53//96 52//96 54//96
f 55//97 53//97 54//97
f 55//98 54//98 56//98
f 57//99 55//99 56//99
f 57//100 56//100 58//100
f 59//101 57//101 58//101
f 59//102 58//102 60//102
f 61//103 59//103 60//103
f 61//104 60//104 62//104
f 63//105 61//105 62//105
f 64//106 61//106 63//106
f 65//107 64//107 63//107
f 65//108 63//108 66//108
f 67//109 65//109 66//109
f 67//110 66//110 68//110
f 69//111 67//111 68//111
f 69//112 68//112 70//112
f 71//113 69//113 70//113
f 71//114 70//114 72//114
f 73//115 71//115 72//115
f 73//116 72//116 74//116
f 75//117 73//117 74//117
f 75//118 74//118 76//118
f 77//119 75//119 76//119
f 77//120 76//120 78//120
f 79//121 77//121 78//121
f 79//122 78//122 80//122
f 81//123 79//123 80//123
f 81//124 80//124 82//124
f 83//125 81//125 82//125
f 83//126 82//126 84//126
f 85//127 83//127 84//127
f 85//128 84//128 86//128
f 87//129 85//129 86//129
f 87//130 86//130 88//130
f 89//131 87//131 88//131
f 90//132 87//132 89//132
f 91//133 90//133 89//133
f 91//134 89//134 92//134
f 93//135 91//135 92//135
f 94//136 91//136 93//136
f 95//137 94//137 93//137
f 95//138 93//138 96//138
f 97//139 95//139 96//139
f 97//140 96//140 98//140
f 99//141 97//141 98//141
f 99//142 98//142 100//142
f 50//143 99//143 51//143
f 51//144 99//144 100//144
f 64//145 81//145 83//145
f 65//146 81//146 64//146
f 85//147 64//147 83//147
f 61//148 85//148 87//148
f 59//149 61//149 87//149
f 57//150 87//150 90//150
f 67//151 77//151 79//151
f 71//152 73//152 75//152
f 71//153 75//153 77//153
f 69//154 77//154 67//154
f 69//155 71//155 77//155
f 95//156 49//156 53//156
f 95//157 53//157 94//157
f 55//158 57//158 90//158
f 91//159 55//159 90//159
f 50//160 49//160 95//160
f 97//161 50//161 95//161
f 99//162 50//162 97//162
f 53//163 55//163 94//163
f 57//164 59//164 87//164
f 61//165 64//165 85//165
f 65//166 67//166 81//166
f 81//167 67//167 79//167
f 91//168 94//168 55//168
f 82//169 63//169 84//169
f 82//170 66//170 63//170
f 63//171 86//171 84//171
f 86//172 62//172 88//172
f 62//173 60//173 88//173
f 88//174 58//174 89//174
f 78//175 68//175 80//175
f 74//176 72//176 76//176
f 76//177 72//177 78//177
f 78//178 70//178 68//178
f 72//179 70//179 78//179
f 52//180 96//180 54//180
f 54//181 96//181 93//181
f 58//182 56//182 89//182
f 56//183 92//183 89//183
f 52//184 51//184 96//184
f 51//185 98//185 96//185
f 51//186 100//186 98//186
f 56//187 54//187 93//187
f 60//188 58//188 88//188
f 63//189 62//189 86//189
f 68//190 66//190 82//190
f 68//191 82//191 80//191
f 93//192 92//192 56//192
g Extrude002
f 101//193 102//193 103//193
f 101//194 103//194 104//194
f 105//195 101//195 104//195
f 105//196 104//196 106//196
f 107//197 105//197 106//197
f 107//198 106//198 108//198
f 109//199 107//199 108//199
f 109//200 108//200 110//200
f 111//201 109//201 110//201
f 111//202 110//202 112//202
f 113//203 111//203 112//203
f 113//204 112//204 114//204
f 115//205 113//205 114//205
f 115//206 114//206 116//206
f 117//207 115//207 116//207
f 117//208 116//208 118//208
f 119//209 117//209 118//209
f 119//210 118//210 120//210
f 121//211 119//211 120//211
f 121//212 120//212 122//212
f 123//213 121//213 122//213
f 123//214 122//214 124//214
f 125//215 123//215 124//215
f 125//216 124//216 126//216
f 127//217 125//217 126//217
f 127//218 126//218 128//218
f 129//219 127//219 130//219
f 130//220 127//220 128//220
f 131//221 129//221 132//221
f 132//222 129//222 130//222
f 133//223 131//223 134//223
f 134//224 131//224 132//224
f 135//225 133//225 136//225
f 136//226 133//226 134//226
f 137//227 135//227 138//227
f 138//228 135//228 136//228
f 139//229 137//229 140//229
f 140//230 137//230 138//230
f 141//231 139//231 142//231
f 142//232 139//232 140//232
f 143//233 141//233 144//233
f 144//234 141//234 142//234
f 145//235 144//235 146//235
f 145//236 143//236 144//236
f 147//237 145//237 148//237
f 148//238 145//238 146//238
f 149//239 147//239 150//239
f 150//240 147//240 148//240
f 151//241 149//241 150//241
f 151//242 150//242 152//242
f 102//243 151//243 103//243
f 103//244 151//244 152//244
f 131//245 127//245 129//245
f 125//246 127//246 131//246
f 133//247 123//247 125//247
f 133//248 125//248 131//248
f 135//249 123//249 133//249
f 107//250 151//250 102//250
f 109//251 149//251 151//251
f 109//252 151//252 107//252
f 139//253 121//253 137//253
f 105//254 102//254 101//254
f 105//255 107//255 102//255
f 119//256 121//256 139//256
f 117//257 141//257 143//257
f 117//258 119//258 139//258
f 115//259 117//259 143//259
f 113//260 145//260 147//260
f 113//261 115//261 145//261
f 113//262 147//262 111//262
f 109//263 111//263 147//263
f 109//264 147//264 149//264
f 121//265 123//265 137//265
f 135//266 137//266 123//266
f 139//267 141//267 117//267
f 143//268 145//268 115//268
f 128//269 132//269 130//269
f 128//270 126//270 132//270
f 124//271 134//271 126//271
f 126//272 134//272 132//272
f 124//273 136//273 134//273
f 152//274 108//274 103//274
f 150//275 110//275 152//275
f 152//276 110//276 108//276
f 122//277 140//277 138//277
f 103//278 106//278 104//278
f 108//279 106//279 103//279
f 122//280 120//280 140//280
f 142//281 118//281 144//281
f 120//282 118//282 140//282
f 118//283 116//283 144//283
f 146//284 114//284 148//284
f 116//285 114//285 146//285
f 148//286 114//286 112//286
f 112//287 110//287 148//287
f 148//288 110//288 150//288
f 124//289 122//289 138//289
f 138//290 136//290 124//290
f 142//291 140//291 118//291
f 146//292 144//292 116//292
